<?xml version="1.0" standalone="no"?>
<!DOCTYPE svg PUBLIC "-//W3C//DTD SVG 1.1//EN" "http://www.w3.org/Graphics/SVG/1.1/DTD/svg11.dtd" >
<svg>
<metadata>
Created by FontForge 20090914 at Tue Jun  7 10:00:00 2016
 By www-data
Mellnik is a sans serif of humanist style (in a way) that was developed by Oleg Karpinsky for ParaType in 2006. The type family contains nine styles with a number of alternate characters in each ones. For use as a text font in long text passages of advertising booklets, catalogues or magazines, as well as for accident setting. Mellnik may be also applied as a corporate typeface. Five condensed styles were added in 2007 by the same designer.
</metadata>
<defs>
<font id="MellnikCondLight-Regular" horiz-adv-x="500" >
  <font-face 
    font-family="Mellnik Cond Light"
    font-weight="400"
    font-stretch="normal"
    units-per-em="1000"
    panose-1="2 11 4 8 3 5 4 2 2 4"
    ascent="800"
    descent="-200"
    x-height="498"
    cap-height="700"
    bbox="-130 -232 821 875"
    underline-thickness="20"
    underline-position="-113"
    stemh="54"
    stemv="69"
    unicode-range="U+0020-U+FB04"
  />
<missing-glyph horiz-adv-x="130" 
 />
    <glyph glyph-name="ff" unicode="ff" horiz-adv-x="392" 
d="M452 762l-5 -61c-20 7 -39 9 -50 9c-70 0 -75 -52 -75 -120v-92h90v-54h-90v-274c0 -41 -1 -98 -9 -242l-2 -38h-58v554h-114v-274c0 -41 -1 -98 -9 -242l-2 -38h-58v554h-65v54h65v92c0 121 45 174 151 174c28 0 73 -3 119 -7c16 5 34 7 55 7c13 0 36 0 57 -2zM273 701
c-19 6 -40 9 -50 9c-72 0 -84 -41 -84 -120v-92h114v92c0 47 6 84 20 111z" />
    <glyph glyph-name="fi" unicode="fi" horiz-adv-x="366" 
d="M322 0h-69v444h-114v-274c0 -41 -1 -98 -9 -242l-2 -38h-58v554h-65v54h65v92c0 124 45 174 142 174c31 0 75 -2 110 -6v-178h-69v125c-15 4 -31 5 -39 5c-70 0 -75 -52 -75 -120v-92h183v-498z" />
    <glyph glyph-name="fl" unicode="fl" horiz-adv-x="366" 
d="M322 0h-69v470c0 40 1 95 8 232c-19 6 -36 8 -47 8c-70 0 -75 -52 -75 -120v-92h90v-54h-90v-274c0 -41 -1 -98 -9 -242l-2 -38h-58v554h-65v54h65v92c0 124 45 174 142 174c31 0 75 -2 110 -6v-758z" />
    <glyph glyph-name="ffi" unicode="ffi" horiz-adv-x="549" 
d="M505 0h-69v444h-114v-274c0 -41 -1 -98 -9 -242l-2 -38h-58v554h-114v-274c0 -41 -1 -98 -9 -242l-2 -38h-58v554h-65v54h65v92c0 121 45 174 151 174c28 0 73 -3 119 -7c16 5 34 7 55 7c31 0 75 -2 110 -6v-178h-69v125c-15 4 -31 5 -39 5c-70 0 -75 -52 -75 -120v-92
h183v-498zM273 701c-19 6 -40 9 -50 9c-72 0 -84 -41 -84 -120v-92h114v92c0 47 6 84 20 111z" />
    <glyph glyph-name="ffl" unicode="ffl" horiz-adv-x="549" 
d="M505 0h-69v470c0 40 1 95 8 232c-19 6 -36 8 -47 8c-70 0 -75 -52 -75 -120v-92h90v-54h-90v-274c0 -41 -1 -98 -9 -242l-2 -38h-58v554h-114v-274c0 -41 -1 -98 -9 -242l-2 -38h-58v554h-65v54h65v92c0 121 45 174 151 174c27 0 65 -2 118 -7c16 5 35 7 56 7
c31 0 75 -2 110 -6v-758zM273 701c-19 6 -40 9 -50 9c-72 0 -84 -41 -84 -120v-92h114v92c0 47 6 84 20 111z" />
    <glyph glyph-name="afii10068_afii10103" unicode="&#x433;&#x456;" horiz-adv-x="328" 
d="M284 0h-69v498h69v-498zM270 760l-5 -61c-23 8 -51 11 -67 11c-78 0 -85 -47 -85 -169v-371c0 -41 -1 -98 -9 -242l-2 -38h-58v651c0 126 16 223 150 223c13 0 52 -1 76 -4z" />
    <glyph glyph-name="f_t" unicode="ft" horiz-adv-x="444" 
d="M433 48l-4 -56c-22 -2 -48 -4 -57 -4c-78 0 -102 21 -102 133v323h-131v-274c0 -41 -1 -98 -9 -242l-2 -38h-58v554h-65v54h65v92c0 124 45 174 142 174c13 0 36 0 57 -2l-5 -61c-20 7 -39 9 -50 9c-70 0 -75 -52 -75 -120v-92h133l9 182h58v-182h90v-54h-90v-321
c0 -70 8 -81 51 -81c9 0 27 2 43 6z" />
    <glyph glyph-name="afii10068_afii10076" unicode="&#x433;&#x43a;" horiz-adv-x="517" 
d="M513 4l-76 -9l-99 220l-54 -81v-134h-69v470c0 41 1 97 9 238c-10 1 -19 2 -26 2c-78 0 -85 -47 -85 -169v-371c0 -41 -1 -98 -9 -242l-2 -38h-58v651c0 126 16 223 150 223c32 0 64 -2 90 -5v-531h4l151 277l74 -10l-33 -59c-9 -17 -51 -85 -86 -136l-13 -19z" />
    <glyph glyph-name=".notdef" horiz-adv-x="130" 
 />
    <glyph glyph-name="space" unicode=" " horiz-adv-x="130" 
 />
    <glyph glyph-name="exclam" unicode="!" horiz-adv-x="208" 
d="M142 574c0 -70 0 -89 -5 -208l-7 -156h-52l-7 156c-5 119 -5 138 -5 208v126h76v-126zM141 0h-72v88h72v-88z" />
    <glyph glyph-name="quotedbl" unicode="&#x22;" horiz-adv-x="200" 
d="M189 700l-19 -262h-36l-19 262h74zM85 700l-19 -262h-36l-19 262h74z" />
    <glyph glyph-name="numbersign" unicode="#" horiz-adv-x="479" 
d="M457 487l-13 -69h-81l-41 -176h78l-13 -69h-81l-41 -173h-55l41 173h-96l-41 -173h-55l41 173h-78l13 69h81l41 176h-78l13 69h81l41 173h55l-41 -173h96l41 173h55l-41 -173h78zM308 418h-96l-41 -176h96z" />
    <glyph glyph-name="dollar" unicode="$" horiz-adv-x="339" 
d="M306 149c0 -96 -45 -141 -109 -157v-102h-46v95h-17c-28 0 -62 3 -101 9l8 69c28 -16 66 -21 88 -21c59 0 102 24 102 101c0 29 -7 76 -77 158c-100 116 -113 168 -113 217c0 69 23 134 110 152v100h46v-95h8c16 0 58 -3 90 -8l-8 -66c-26 11 -58 17 -76 17
c-67 0 -95 -35 -95 -94c0 -35 11 -83 76 -159c98 -114 114 -173 114 -216z" />
    <glyph glyph-name="percent" unicode="%" horiz-adv-x="517" 
d="M228 478c0 -146 -32 -190 -92 -190s-92 44 -92 190s32 190 92 190s92 -44 92 -190zM408 662l-270 -670l-29 6l270 670zM473 182c0 -146 -32 -190 -92 -190s-92 44 -92 190s32 190 92 190s92 -44 92 -190zM183 478c0 136 -20 156 -47 156s-47 -20 -47 -156
s20 -156 47 -156s47 20 47 156zM428 182c0 136 -20 156 -47 156s-47 -20 -47 -156s20 -156 47 -156s47 20 47 156z" />
    <glyph glyph-name="ampersand" unicode="&#x26;" horiz-adv-x="546" 
d="M513 306h-62c0 -212 -45 -321 -199 -321c-111 0 -164 68 -164 191c0 86 32 139 96 161v8c-62 21 -81 79 -81 145c0 117 46 185 154 185c27 0 62 -1 117 -12l-9 -65c-31 14 -61 20 -91 20c-64 0 -96 -39 -96 -128c0 -74 24 -127 96 -127h59v-57h-59
c-69 0 -111 -43 -111 -130c0 -91 35 -134 98 -134c98 0 115 83 115 264v57h137v-57z" />
    <glyph glyph-name="quotesingle" unicode="'" horiz-adv-x="96" 
d="M85 700l-19 -262h-36l-19 262h74z" />
    <glyph glyph-name="parenleft" unicode="(" horiz-adv-x="309" 
d="M276 -159l-38 -39c-71 45 -172 165 -172 467s101 422 172 467l38 -39c-67 -43 -138 -166 -138 -428s71 -385 138 -428z" />
    <glyph glyph-name="parenright" unicode=")" horiz-adv-x="309" 
d="M243 269c0 -302 -101 -422 -172 -467l-38 39c67 43 138 166 138 428s-71 385 -138 428l38 39c71 -45 172 -165 172 -467z" />
    <glyph glyph-name="asterisk" unicode="*" horiz-adv-x="460" 
d="M405 448l-30 -51l-125 91l-7 -4l17 -154h-60l17 154l-7 4l-125 -91l-30 51l142 63v8l-142 63l30 51l125 -91l7 4l-17 154h60l-17 -154l7 -4l125 91l30 -51l-142 -63v-8z" />
    <glyph glyph-name="plus" unicode="+" horiz-adv-x="430" 
d="M408 310h-166v-168h-54v168h-166v49h166v169h54v-169h166v-49z" />
    <glyph glyph-name="comma" unicode="," horiz-adv-x="204" 
d="M147 80l-73 -238h-38l30 246h81v-8z" />
    <glyph glyph-name="hyphen" unicode="-" horiz-adv-x="256" 
d="M245 253h-234v54h234v-54z" />
    <glyph glyph-name="period" unicode="." horiz-adv-x="204" 
d="M138 0h-72v88h72v-88z" />
    <glyph glyph-name="slash" unicode="/" horiz-adv-x="253" 
d="M242 700l-231 -881l-46 8l231 881z" />
    <glyph glyph-name="zero" unicode="0" horiz-adv-x="424" 
d="M380 330c0 -265 -59 -345 -168 -345s-168 80 -168 345s59 345 168 345s168 -80 168 -345zM305 330c0 251 -39 288 -93 288s-93 -37 -93 -288s39 -288 93 -288s93 37 93 288z" />
    <glyph glyph-name="one" unicode="1" horiz-adv-x="237" 
d="M171 0h-72v582l-88 -69l-8 62l108 85h60v-660z" />
    <glyph glyph-name="two" unicode="2" horiz-adv-x="342" 
d="M309 0h-282v57l108 184c92 157 99 219 99 271c0 76 -55 106 -113 106c-35 0 -64 -6 -100 -21l-10 66c40 8 81 12 113 12c100 0 185 -55 185 -163c0 -79 -38 -172 -139 -327l-83 -128h222v-57z" />
    <glyph glyph-name="three" unicode="3" horiz-adv-x="353" 
d="M309 176c0 -123 -53 -191 -164 -191c-34 0 -93 5 -134 15l10 68c32 -17 76 -26 107 -26c66 0 106 43 106 134c0 87 -37 130 -106 130c-16 0 -31 0 -59 -2v61c28 -2 43 -2 59 -2c72 0 96 53 96 127c0 89 -32 128 -96 128c-30 0 -60 -6 -91 -20l-9 65c55 11 90 12 117 12
c108 0 154 -68 154 -185c0 -66 -19 -124 -81 -145v-8c64 -22 91 -75 91 -161z" />
    <glyph glyph-name="four" unicode="4" horiz-adv-x="370" 
d="M348 183h-66v-183h-72v183h-199v74l159 403h112v-420h66v-57zM210 240v384h-8c-20 -69 -66 -195 -87 -249l-53 -135h148z" />
    <glyph glyph-name="five" unicode="5" horiz-adv-x="357" 
d="M324 203c0 -169 -81 -218 -177 -218c-28 0 -87 5 -125 13l9 67c29 -14 78 -23 102 -23c80 0 116 56 116 161c0 119 -46 161 -117 161c-27 0 -57 -4 -82 -13l19 309h227v-57h-158l-11 -184c13 2 23 2 31 2c81 0 166 -47 166 -218z" />
    <glyph glyph-name="six" unicode="6" horiz-adv-x="369" 
d="M347 208c0 -161 -66 -223 -156 -223c-133 0 -158 116 -158 264c0 272 82 414 245 457l20 -50c-97 -24 -167 -112 -181 -275h5c33 43 62 50 87 50c70 0 138 -39 138 -223zM272 208c0 114 -22 166 -81 166c-26 0 -54 -14 -79 -43c-3 -32 -3 -69 -3 -82
c0 -133 18 -207 82 -207c45 0 81 41 81 166z" />
    <glyph glyph-name="seven" unicode="7" horiz-adv-x="307" 
d="M296 603l-188 -610l-75 11l51 160c15 46 51 152 88 253l68 186h-238v57h294v-57z" />
    <glyph glyph-name="eight" unicode="8" horiz-adv-x="412" 
d="M368 148c0 -86 -37 -163 -162 -163c-121 0 -162 72 -162 163c0 74 32 130 103 195c-85 69 -94 135 -94 179c0 85 38 153 153 153c112 0 153 -65 153 -153c0 -50 -21 -117 -94 -184c87 -69 103 -135 103 -190zM284 522c0 68 -27 96 -78 96c-56 0 -78 -33 -78 -96
c0 -47 14 -88 90 -149l20 -16c35 51 46 127 46 165zM293 148c0 25 -7 89 -93 158l-25 20c-33 -45 -56 -114 -56 -178c0 -54 14 -106 87 -106c62 0 87 38 87 106z" />
    <glyph glyph-name="nine" unicode="9" horiz-adv-x="369" 
d="M336 411c0 -272 -82 -414 -245 -457l-20 50c97 24 167 112 181 275h-5c-33 -43 -62 -50 -87 -50c-70 0 -138 39 -138 223c0 161 66 223 156 223c133 0 158 -116 158 -264zM260 411c0 133 -18 207 -82 207c-45 0 -81 -41 -81 -166c0 -114 22 -166 81 -166
c26 0 54 14 79 43c3 32 3 69 3 82z" />
    <glyph glyph-name="colon" unicode=":" horiz-adv-x="204" 
d="M138 410h-72v88h72v-88zM138 0h-72v88h72v-88z" />
    <glyph glyph-name="semicolon" unicode=";" horiz-adv-x="204" 
d="M138 410h-72v88h72v-88zM147 80l-73 -238h-38l30 246h81v-8z" />
    <glyph glyph-name="less" unicode="&#x3c;" horiz-adv-x="386" 
d="M364 227l-10 -52l-332 126v66l332 126l10 -52l-287 -103v-8z" />
    <glyph glyph-name="equal" unicode="=" horiz-adv-x="430" 
d="M408 390h-386v49h386v-49zM408 229h-386v49h386v-49z" />
    <glyph glyph-name="greater" unicode="&#x3e;" horiz-adv-x="386" 
d="M364 301l-332 -126l-10 52l287 103v8l-287 103l10 52l332 -126v-66z" />
    <glyph glyph-name="question" unicode="?" horiz-adv-x="403" 
d="M337 566c0 -45 0 -77 -75 -188c-55 -81 -57 -106 -57 -168h-57c0 87 6 112 56 195c52 86 58 116 58 161c0 63 -43 92 -102 92c-23 0 -56 -6 -84 -18l-10 67c29 5 67 8 94 8c100 0 177 -45 177 -149zM213 0h-72v88h72v-88z" />
    <glyph glyph-name="at" unicode="@" horiz-adv-x="869" 
d="M821 381c0 -194 -101 -381 -276 -381h-70l7 48h-5c-49 -49 -89 -62 -122 -62c-66 0 -86 38 -86 102c0 19 6 90 20 161c37 192 55 263 168 263c25 0 57 -11 96 -62h6l13 48h63l-88 -453c117 0 223 126 223 323c0 221 -144 312 -266 312c-283 0 -398 -274 -398 -524
c0 -248 143 -338 265 -338c78 0 136 8 218 60l20 -42c-89 -61 -175 -68 -246 -68c-159 0 -315 119 -315 378c0 312 163 584 464 584c131 0 309 -93 309 -349zM547 401c-24 36 -48 57 -75 57c-60 0 -72 -10 -111 -209c-15 -75 -21 -133 -21 -152c0 -40 12 -57 50 -57
c27 0 58 20 98 57z" />
    <glyph glyph-name="A" unicode="A" horiz-adv-x="404" 
d="M402 0h-80l-54 263h-135l-51 -263h-80l150 700h100zM255 323l-60 293h-5l-48 -293h113z" />
    <glyph glyph-name="B" unicode="B" horiz-adv-x="410" 
d="M385 188c0 -121 -32 -188 -194 -188h-136v700h133c131 0 187 -47 187 -181c0 -78 -31 -128 -84 -146v-8c68 -20 94 -66 94 -177zM296 513c0 92 -24 127 -111 127h-54v-254h54c87 0 111 35 111 127zM306 193c0 105 -34 133 -118 133h-57v-266h57c84 0 118 28 118 133z" />
    <glyph glyph-name="C" unicode="C" horiz-adv-x="343" 
d="M332 710l-9 -70c-19 10 -50 15 -62 15c-81 0 -146 -3 -146 -305c0 -297 62 -305 146 -305c20 0 46 3 70 14l-9 -70c-27 -3 -53 -4 -72 -4c-113 0 -214 30 -214 365s101 365 214 365c22 0 54 -2 82 -5z" />
    <glyph glyph-name="D" unicode="D" horiz-adv-x="458" 
d="M422 350c0 -271 -53 -350 -227 -350h-140v700h140c174 0 227 -79 227 -350zM343 350c0 224 -29 290 -150 290h-62v-580h62c121 0 150 66 150 290z" />
    <glyph glyph-name="E" unicode="E" horiz-adv-x="355" 
d="M333 0h-278v700h271v-60h-195v-254h172v-60h-172v-266h202v-60z" />
    <glyph glyph-name="F" unicode="F" horiz-adv-x="334" 
d="M323 640h-192v-266h172v-60h-172v-314h-76v700h268v-60z" />
    <glyph glyph-name="G" unicode="G" horiz-adv-x="438" 
d="M388 -3c-38 -7 -100 -12 -130 -12c-127 0 -222 33 -222 365c0 349 107 365 222 365c32 0 89 -6 121 -11l-8 -70c-33 14 -85 21 -105 21c-90 0 -151 -5 -151 -305c0 -297 59 -305 151 -305c10 0 30 1 46 3v296h76v-347z" />
    <glyph glyph-name="H" unicode="H" horiz-adv-x="456" 
d="M401 0h-76v326h-194v-326h-76v700h76v-314h194v314h76v-700z" />
    <glyph glyph-name="I" unicode="I" horiz-adv-x="186" 
d="M131 0h-76v700h76v-700z" />
    <glyph glyph-name="J" unicode="J" horiz-adv-x="186" 
d="M131 -11c0 -139 -29 -173 -103 -183l-22 58c41 6 49 23 49 128v708h76v-711z" />
    <glyph glyph-name="K" unicode="K" horiz-adv-x="421" 
d="M420 3l-84 -7l-136 310l-69 -118v-188h-76v700h76v-393h4l192 395l82 -4l-51 -103c-23 -47 -63 -127 -89 -171l-23 -39z" />
    <glyph glyph-name="L" unicode="L" horiz-adv-x="334" 
d="M329 0h-263v700h76v-640h187v-60z" />
    <glyph glyph-name="M" unicode="M" horiz-adv-x="556" 
d="M501 0h-78v140c0 94 1 236 3 301l6 211h-8l-109 -652h-74l-109 652h-8l6 -211c2 -65 3 -207 3 -301v-140h-78l14 700h124l92 -552h5l13 126c9 91 24 207 45 336l15 90h124z" />
    <glyph glyph-name="N" unicode="N" horiz-adv-x="463" 
d="M408 700l-3 -700h-111l-172 595h-9l8 -163c9 -190 10 -273 10 -316v-116h-76l3 700h111l172 -595h9l-8 163c-9 190 -10 273 -10 316v116h76z" />
    <glyph glyph-name="O" unicode="O" horiz-adv-x="476" 
d="M440 350c0 -308 -85 -365 -202 -365s-202 57 -202 365s85 365 202 365s202 -57 202 -365zM361 350c0 263 -50 305 -123 305s-123 -42 -123 -305s50 -305 123 -305s123 42 123 305z" />
    <glyph glyph-name="P" unicode="P" horiz-adv-x="397" 
d="M375 485c0 -159 -39 -215 -193 -215h-51v-270h-76v700h127c154 0 193 -56 193 -215zM296 485c0 119 -13 155 -117 155h-48v-310h48c104 0 117 36 117 155z" />
    <glyph glyph-name="Q" unicode="Q" horiz-adv-x="476" 
d="M477 -115l-78 -29l-114 133c-15 -3 -31 -4 -47 -4c-117 0 -202 57 -202 365s85 365 202 365s202 -57 202 -365c0 -207 -38 -301 -99 -340v-3l42 -34c23 -18 60 -54 71 -65zM361 350c0 263 -50 305 -123 305s-123 -42 -123 -305s50 -305 123 -305s123 42 123 305z" />
    <glyph glyph-name="R" unicode="R" horiz-adv-x="431" 
d="M429 3l-81 -7l-79 204c-28 73 -46 86 -103 86h-35v-286h-76v700h127c137 0 193 -41 193 -200c0 -95 -22 -167 -100 -187v-8c26 -14 47 -36 75 -105zM296 493c0 127 -25 147 -117 147h-48v-294h48c88 0 117 20 117 147z" />
    <glyph glyph-name="S" unicode="S" horiz-adv-x="332" 
d="M310 158c0 -133 -82 -173 -182 -173c-30 0 -65 3 -106 9l8 73c30 -17 70 -22 93 -22c62 0 108 26 108 107c0 31 -6 80 -81 167c-106 123 -120 178 -120 230c0 86 34 166 174 166c17 0 61 -3 95 -8l-9 -70c-28 12 -61 18 -80 18c-70 0 -101 -37 -101 -100
c0 -37 12 -88 81 -168c104 -120 120 -183 120 -229z" />
    <glyph glyph-name="T" unicode="T" horiz-adv-x="356" 
d="M351 640h-135v-640h-76v640h-135v60h346v-60z" />
    <glyph glyph-name="U" unicode="U" horiz-adv-x="452" 
d="M402 158c0 -128 -71 -173 -176 -173s-176 45 -176 173v542h76v-540c0 -76 21 -115 100 -115s100 39 100 115v540h76v-542z" />
    <glyph glyph-name="V" unicode="V" horiz-adv-x="400" 
d="M398 700l-150 -700h-96l-150 700h80l126 -611h4l29 176c18 108 39 238 53 310l24 125h80z" />
    <glyph glyph-name="W" unicode="W" horiz-adv-x="658" 
d="M656 700l-138 -700h-96l-91 472h-4l-91 -472h-96l-138 700h80l114 -602h4l25 176c15 108 42 271 47 301l22 125h70l114 -602h4l25 176c15 108 42 271 47 301l22 125h80z" />
    <glyph glyph-name="X" unicode="X" horiz-adv-x="405" 
d="M400 4l-82 -7l-123 290h-5l-23 -72c-22 -67 -51 -145 -58 -163l-22 -55l-82 7l155 352l-149 340l82 7l119 -279h5l23 72c22 67 43 134 50 152l22 55l82 -7l-149 -339z" />
    <glyph glyph-name="Y" unicode="Y" horiz-adv-x="394" 
d="M392 700l-157 -424v-276h-76v276l-157 424h85l118 -337h4l18 68c17 64 47 169 59 205l21 64h85z" />
    <glyph glyph-name="Z" unicode="Z" horiz-adv-x="394" 
d="M372 0h-350v60l73 180c18 46 56 122 143 279l63 113v8h-266v60h328v-60l-73 -180c-18 -46 -56 -122 -143 -279l-63 -113v-8h288v-60z" />
    <glyph glyph-name="bracketleft" unicode="[" horiz-adv-x="231" 
d="M198 -182h-132v902h132v-54h-63v-794h63v-54z" />
    <glyph glyph-name="backslash" unicode="\" horiz-adv-x="253" 
d="M242 0l-46 -8l-185 708l46 8z" />
    <glyph glyph-name="bracketright" unicode="]" horiz-adv-x="231" 
d="M165 -182h-132v54h63v794h-63v54h132v-902z" />
    <glyph glyph-name="asciicircum" unicode="^" 
d="M418 178l-67 -7l-97 444h-8l-111 -444l-53 7l128 482h80z" />
    <glyph glyph-name="underscore" unicode="_" horiz-adv-x="286" 
d="M286 -190h-286v54h286v-54z" />
    <glyph glyph-name="grave" unicode="`" 
d="M304 539h-31l-78 154v7h69z" />
    <glyph glyph-name="a" unicode="a" horiz-adv-x="367" 
d="M345 47l-6 -57c-15 -3 -36 -4 -42 -4c-49 0 -53 18 -53 65h-7c-32 -46 -58 -65 -105 -65c-75 0 -110 36 -110 136c0 135 90 168 215 168v64c0 79 -10 104 -88 104c-30 0 -66 -6 -107 -20l-7 60c40 8 90 14 126 14c87 0 145 -25 145 -153v-296c0 -19 2 -21 17 -21
c5 0 13 2 22 5zM237 100v136c-101 0 -143 -36 -143 -114c0 -51 13 -82 58 -82c28 0 57 13 85 60z" />
    <glyph glyph-name="b" unicode="b" horiz-adv-x="371" 
d="M341 249c0 -179 -7 -263 -116 -263c-33 0 -67 16 -108 62h-7l-3 -48h-63v470c0 41 1 98 9 242l2 38h58v-300h4c41 46 75 62 108 62c109 0 116 -84 116 -263zM269 249c0 169 -1 209 -69 209c-27 0 -54 -22 -87 -57v-304c33 -35 60 -57 87 -57c68 0 69 40 69 209z" />
    <glyph glyph-name="c" unicode="c" horiz-adv-x="302" 
d="M280 51l-7 -61c-20 -2 -50 -4 -73 -4c-108 0 -167 37 -167 263s59 263 167 263c16 0 54 -2 80 -5l-7 -60c-19 7 -46 11 -59 11c-78 0 -109 -13 -109 -209s31 -209 109 -209c16 0 46 4 66 11z" />
    <glyph glyph-name="d" unicode="d" horiz-adv-x="371" 
d="M327 0h-63l-3 48h-7c-41 -46 -75 -62 -108 -62c-109 0 -116 84 -116 263s7 263 116 263c33 0 67 -16 108 -62h4v20c0 41 1 98 9 242l2 38h58v-750zM258 97v304c-33 35 -60 57 -87 57c-68 0 -69 -40 -69 -209s1 -209 69 -209c27 0 54 22 87 57z" />
    <glyph glyph-name="e" unicode="e" horiz-adv-x="382" 
d="M349 236h-244c0 -166 31 -196 114 -196c31 0 74 6 114 22l-6 -60c-44 -12 -91 -16 -122 -16c-144 0 -172 89 -172 263c0 189 37 263 158 263c118 0 158 -66 158 -263v-13zM279 290c0 144 -32 168 -88 168c-48 0 -86 -22 -86 -168h174z" />
    <glyph glyph-name="f" unicode="f" horiz-adv-x="209" 
d="M269 762l-5 -61c-20 7 -39 9 -50 9c-70 0 -75 -52 -75 -120v-92h90v-54h-90v-274c0 -41 -1 -98 -9 -242l-2 -38h-58v554h-65v54h65v92c0 124 45 174 142 174c13 0 36 0 57 -2z" />
    <glyph glyph-name="g" unicode="g" horiz-adv-x="371" 
d="M327 7c0 -186 -55 -211 -180 -211c-22 0 -75 4 -111 11l8 68c25 -15 79 -25 101 -25c95 0 113 22 113 158v40h-4c-41 -46 -75 -62 -108 -62c-109 0 -116 84 -116 263s7 263 116 263c33 0 67 -16 108 -62h7l3 48h63v-491zM258 97v304c-33 35 -60 57 -87 57
c-68 0 -69 -40 -69 -209s1 -209 69 -209c27 0 54 22 87 57z" />
    <glyph glyph-name="h" unicode="h" horiz-adv-x="368" 
d="M328 0h-69v380c0 74 -22 78 -57 78c-27 0 -54 -19 -89 -57v-401h-69v470c0 41 1 98 9 242l2 38h58v-300h4c43 46 71 62 110 62c68 0 101 -33 101 -128v-384z" />
    <glyph glyph-name="i" unicode="i" horiz-adv-x="157" 
d="M116 580h-75v120h75v-120zM113 0h-69v498h69v-498z" />
    <glyph glyph-name="j" unicode="j" horiz-adv-x="158" 
d="M117 580h-75v120h75v-120zM114 -20c0 -115 -15 -172 -108 -184l-19 52c56 6 58 48 58 135v515h69v-518z" />
    <glyph glyph-name="k" unicode="k" horiz-adv-x="346" 
d="M342 4l-76 -9l-99 220l-54 -81v-134h-69v470c0 41 1 98 9 242l2 38h58v-522h4l151 277l74 -10l-33 -59c-9 -17 -51 -85 -86 -136l-13 -19z" />
    <glyph glyph-name="l" unicode="l" horiz-adv-x="157" 
d="M113 0h-69v470c0 41 1 98 9 242l2 38h58v-750z" />
    <glyph glyph-name="m" unicode="m" horiz-adv-x="579" 
d="M539 0h-69v380c0 67 -14 78 -56 78c-29 0 -54 -21 -88 -57v-401h-69v380c0 67 -14 78 -56 78c-29 0 -54 -21 -88 -57v-401h-69v498h63l3 -48h7c36 41 68 62 109 62c55 0 84 -24 93 -67h5c42 49 75 67 113 67c68 0 102 -31 102 -128v-384z" />
    <glyph glyph-name="n" unicode="n" horiz-adv-x="368" 
d="M328 0h-69v380c0 74 -22 78 -57 78c-27 0 -54 -19 -89 -57v-401h-69v498h63l3 -48h7c43 46 71 62 110 62c68 0 101 -33 101 -128v-384z" />
    <glyph glyph-name="o" unicode="o" horiz-adv-x="382" 
d="M349 249c0 -189 -35 -263 -158 -263s-158 74 -158 263s35 263 158 263s158 -74 158 -263zM277 249c0 166 -16 209 -86 209s-86 -43 -86 -209s16 -209 86 -209s86 43 86 209z" />
    <glyph glyph-name="p" unicode="p" horiz-adv-x="371" 
d="M341 249c0 -179 -7 -263 -116 -263c-33 0 -67 16 -108 62h-4v-238h-69v688h63l3 -48h7c41 46 75 62 108 62c109 0 116 -84 116 -263zM269 249c0 169 -1 209 -69 209c-27 0 -54 -22 -87 -57v-304c33 -35 60 -57 87 -57c68 0 69 40 69 209z" />
    <glyph glyph-name="q" unicode="q" horiz-adv-x="371" 
d="M327 -190h-69v238h-4c-41 -46 -75 -62 -108 -62c-109 0 -116 84 -116 263s7 263 116 263c33 0 67 -16 108 -62h7l3 48h63v-688zM258 97v304c-33 35 -60 57 -87 57c-68 0 -69 -40 -69 -209s1 -209 69 -209c27 0 54 22 87 57z" />
    <glyph glyph-name="r" unicode="r" horiz-adv-x="241" 
d="M236 453c-6 1 -10 1 -14 1c-41 0 -63 -11 -109 -57v-397h-69v498h63l3 -52h7c42 56 75 66 101 66h18v-59z" />
    <glyph glyph-name="s" unicode="s" horiz-adv-x="307" 
d="M285 115c0 -96 -72 -129 -155 -129c-27 0 -79 3 -108 8l7 61c31 -11 67 -15 96 -15c56 0 88 27 88 75c0 38 -25 68 -73 105c-88 68 -112 113 -112 165c0 89 64 127 148 127c19 0 58 -2 98 -8l-7 -59c-35 10 -69 13 -86 13c-60 0 -81 -31 -81 -73c0 -28 13 -58 72 -103
c87 -67 113 -111 113 -167z" />
    <glyph glyph-name="t" unicode="t" horiz-adv-x="244" 
d="M233 48l-4 -56c-22 -2 -48 -4 -57 -4c-78 0 -102 21 -102 133v323h-65v54h67l9 182h58v-182h90v-54h-90v-321c0 -70 8 -81 51 -81c9 0 27 2 43 6z" />
    <glyph glyph-name="u" unicode="u" horiz-adv-x="368" 
d="M324 0h-63l-3 48h-7c-43 -46 -71 -62 -110 -62c-68 0 -101 33 -101 128v384h69v-380c0 -74 22 -78 57 -78c27 0 54 19 89 57v401h69v-498z" />
    <glyph glyph-name="v" unicode="v" horiz-adv-x="314" 
d="M312 498l-112 -498h-86l-112 498h74l86 -410h7l12 79c18 115 36 220 41 246l16 85h74z" />
    <glyph glyph-name="w" unicode="w" horiz-adv-x="482" 
d="M480 498l-93 -498h-92l-51 285h-6l-51 -285h-92l-93 498h74l70 -411h7l8 79c12 116 27 221 31 247l14 85h70l70 -411h7l8 79c12 116 27 221 31 247l14 85h74z" />
    <glyph glyph-name="x" unicode="x" horiz-adv-x="336" 
d="M332 2l-79 -5l-93 202h-5l-17 -55c-13 -43 -26 -81 -33 -97l-22 -50l-79 5l123 253l-117 241l79 5l87 -189h5l16 55c8 26 21 68 28 84l22 50l79 -5l-117 -241z" />
    <glyph glyph-name="y" unicode="y" horiz-adv-x="314" 
d="M312 498l-155 -688h-80l41 173l-116 515h74l86 -410h7l12 79c18 115 36 220 41 246l16 85h74z" />
    <glyph glyph-name="z" unicode="z" horiz-adv-x="315" 
d="M293 0h-271v54l69 151c28 61 49 98 100 176l37 57v6h-196v54h253v-54l-69 -151c-28 -61 -49 -98 -100 -176l-37 -57v-6h214v-54z" />
    <glyph glyph-name="braceleft" unicode="{" horiz-adv-x="263" 
d="M230 -146l-25 -51c-97 19 -112 106 -112 227v58c0 97 -15 138 -60 152v58c45 14 60 55 60 152v58c0 121 15 208 112 227l25 -51c-57 -20 -65 -51 -65 -179v-56c0 -101 -14 -152 -79 -176v-8c65 -24 79 -75 79 -176v-56c0 -128 8 -159 65 -179z" />
    <glyph glyph-name="bar" unicode="|" horiz-adv-x="179" 
d="M113 -182h-47v902h47v-902z" />
    <glyph glyph-name="braceright" unicode="}" horiz-adv-x="263" 
d="M230 240c-45 -14 -60 -55 -60 -152v-58c0 -121 -15 -208 -112 -227l-25 51c57 20 65 51 65 179v56c0 101 14 152 79 176v8c-65 24 -79 75 -79 176v56c0 128 -8 159 -65 179l25 51c97 -19 112 -106 112 -227v-58c0 -97 15 -138 60 -152v-58z" />
    <glyph glyph-name="asciitilde" unicode="~" horiz-adv-x="526" 
d="M504 307c-37 -39 -85 -65 -146 -65c-28 0 -70 11 -94 25c-54 31 -72 37 -100 37c-55 0 -96 -24 -130 -59l-12 48c37 39 85 65 146 65c28 0 69 -11 93 -25c54 -31 73 -37 101 -37c55 0 96 24 130 59z" />
    <glyph glyph-name="nbspace" unicode="&#xa0;" horiz-adv-x="130" 
 />
    <glyph glyph-name="exclamdown" unicode="&#xa1;" horiz-adv-x="208" 
d="M141 612h-72v88h72v-88zM142 0h-76v126c0 70 0 89 5 208l7 156h52l7 -156c5 -119 5 -138 5 -208v-126z" />
    <glyph glyph-name="cent" unicode="&#xa2;" horiz-adv-x="302" 
d="M280 51l-7 -61c-16 -2 -41 -4 -59 -4v-150h-43v151c-90 7 -138 57 -138 262s48 255 138 262v151h43v-150c19 -1 46 -3 66 -5l-7 -60c-19 7 -46 11 -59 11v-418c16 0 46 4 66 11zM171 43v412c-47 -10 -66 -51 -66 -206s19 -196 66 -206z" />
    <glyph glyph-name="sterling" unicode="&#xa3;" horiz-adv-x="355" 
d="M344 0h-290v289h-49v46h49v147c0 113 28 193 166 193c24 0 50 -1 78 -3l-5 -67c-22 9 -52 13 -66 13c-83 0 -101 -55 -101 -136v-147h127v-46h-127v-232h218v-57z" />
    <glyph glyph-name="currency" unicode="&#xa4;" horiz-adv-x="614" 
d="M559 116l-38 -38l-64 64c-41 -33 -93 -52 -150 -52s-109 19 -150 52l-64 -64l-38 38l64 64c-33 41 -52 93 -52 150s19 109 52 150l-64 64l38 38l64 -64c41 33 93 52 150 52s109 -19 150 -52l64 64l38 -38l-64 -64c33 -41 52 -93 52 -150s-19 -109 -52 -150zM493 330
c0 103 -83 186 -186 186s-186 -83 -186 -186s83 -186 186 -186s186 83 186 186z" />
    <glyph glyph-name="yen" unicode="&#xa5;" horiz-adv-x="384" 
d="M376 660l-114 -310h96v-48h-114l-16 -43v-36h130v-48h-130v-175h-72v175h-130v48h130v36l-16 43h-114v48h96l-114 310h80l112 -319h3l17 65c16 61 45 159 56 193l20 61h80z" />
    <glyph glyph-name="brokenbar" unicode="&#xa6;" horiz-adv-x="179" 
d="M113 314h-47v406h47v-406zM113 -182h-47v406h47v-406z" />
    <glyph glyph-name="section" unicode="&#xa7;" horiz-adv-x="376" 
d="M332 214c0 -60 -45 -108 -101 -128c59 -63 76 -106 76 -150c0 -80 -46 -133 -145 -133c-29 0 -69 4 -104 10l10 65c25 -11 54 -18 77 -18c46 0 87 21 87 73c0 42 -9 69 -74 129c-92 85 -114 126 -114 202c0 60 45 108 101 128c-59 63 -76 106 -76 150
c0 80 46 133 145 133c29 0 69 -4 104 -10l-10 -65c-25 11 -54 18 -77 18c-46 0 -87 -21 -87 -73c0 -42 9 -69 74 -129c92 -85 114 -126 114 -202zM257 212c0 42 -4 72 -74 142l-5 5c-39 -20 -59 -52 -59 -93c0 -42 4 -72 74 -142l5 -5c39 20 59 52 59 93z" />
    <glyph glyph-name="dieresis" unicode="&#xa8;" 
d="M352 580h-68v120h68v-120zM216 580h-68v120h68v-120z" />
    <glyph glyph-name="copyright" unicode="&#xa9;" horiz-adv-x="800" 
d="M734 277c0 -231 -103 -418 -334 -418s-334 187 -334 418s103 418 334 418s334 -187 334 -418zM483 529l-7 -49c-13 7 -35 11 -43 11c-57 0 -102 -3 -102 -214c0 -208 43 -214 102 -214c14 0 32 3 49 10l-6 -49c-19 -2 -38 -2 -51 -2c-79 0 -150 21 -150 255
s71 255 150 255c16 0 38 -1 58 -3zM692 277c0 210 -82 380 -292 380s-292 -170 -292 -380s82 -380 292 -380s292 170 292 380z" />
    <glyph glyph-name="ordfeminine" unicode="&#xaa;" horiz-adv-x="335" 
d="M324 256l-6 -51c-13 -3 -32 -4 -37 -4c-44 0 -48 17 -48 59h-6c-29 -41 -52 -59 -95 -59c-67 0 -99 33 -99 123c0 122 82 151 194 151v57c0 71 -10 94 -80 94c-27 0 -59 -5 -96 -18l-6 54c36 7 81 13 113 13c78 0 131 -23 131 -138v-266c0 -17 2 -19 15 -19
c4 0 12 1 20 4zM289 0h-244v49h244v-49zM227 304v122c-91 0 -129 -31 -129 -102c0 -46 12 -74 52 -74c25 0 52 12 77 54z" />
    <glyph glyph-name="guillemotleft" unicode="&#xab;" horiz-adv-x="257" 
d="M246 117l-35 -7l-72 164v12l72 164l35 -7l-49 -163zM167 83l-42 -9l-114 176v60l114 176l42 -9l-86 -197z" />
    <glyph glyph-name="logicalnot" unicode="&#xac;" horiz-adv-x="430" 
d="M408 200h-54v110h-332v49h386v-159z" />
    <glyph glyph-name="uni00AD" unicode="&#xad;" horiz-adv-x="256" 
d="M245 253h-234v54h234v-54z" />
    <glyph glyph-name="registered" unicode="&#xae;" horiz-adv-x="880" 
d="M814 340c0 -207 -167 -374 -374 -374s-374 167 -374 374s167 374 374 374s374 -167 374 -374zM780 340c0 188 -152 340 -340 340s-340 -152 -340 -340s152 -340 340 -340s340 152 340 340zM590 112l-53 -4l-52 134c-19 48 -30 57 -68 57h-23v-189h-50v462h83
c90 0 128 -27 128 -132c0 -63 -15 -110 -66 -123v-5c17 -9 31 -24 49 -70zM503 436c0 84 -17 97 -78 97h-31v-194h31c58 0 78 13 78 97z" />
    <glyph glyph-name="macron" unicode="&#xaf;" 
d="M356 606h-212v50h212v-50z" />
    <glyph glyph-name="degree" unicode="&#xb0;" horiz-adv-x="314" 
d="M259 568c0 -56 -46 -102 -102 -102s-102 46 -102 102s46 102 102 102s102 -46 102 -102zM221 568c0 35 -29 64 -64 64s-64 -29 -64 -64s29 -64 64 -64s64 29 64 64z" />
    <glyph glyph-name="plusminus" unicode="&#xb1;" horiz-adv-x="430" 
d="M408 420h-166v-168h-54v168h-166v49h166v169h54v-169h166v-49zM408 112h-386v49h386v-49z" />
    <glyph glyph-name="twosuperior" unicode="&#xb2;" horiz-adv-x="230" 
d="M186 297h-155v31l59 102c50 87 55 120 55 149c0 42 -30 58 -62 58c-19 0 -35 -4 -55 -12l-6 37c22 4 44 6 62 6c55 0 102 -30 102 -89c0 -43 -21 -95 -76 -180l-46 -71h122v-31z" />
    <glyph glyph-name="threesuperior" unicode="&#xb3;" horiz-adv-x="230" 
d="M186 394c0 -68 -29 -105 -90 -105c-19 0 -52 3 -74 8l5 37c20 -9 48 -14 65 -14c37 0 53 24 53 74c0 47 -16 71 -53 71c-9 0 -17 0 -32 -1v34c15 -1 23 -1 32 -1c36 0 47 28 47 70c0 46 -14 70 -47 70c-18 0 -36 -3 -55 -11l-6 36c30 6 50 6 65 6c60 0 84 -37 84 -101
c0 -36 -10 -68 -44 -80v-5c35 -12 50 -41 50 -88z" />
    <glyph glyph-name="acute" unicode="&#xb4;" 
d="M304 693l-78 -154h-31l40 161h69v-7z" />
    <glyph glyph-name="mu" unicode="&#xb5;" horiz-adv-x="370" 
d="M359 40l-6 -54c-83 0 -95 15 -95 62h-7c-18 -51 -52 -62 -83 -62c-48 0 -67 20 -87 62l-8 -4l12 -42c21 -72 24 -122 24 -156v-36h-69v688h69v-380c0 -72 41 -78 67 -78c27 0 58 16 79 57v401h69v-419c0 -31 5 -37 35 -39z" />
    <glyph glyph-name="paragraph" unicode="&#xb6;" horiz-adv-x="385" 
d="M319 -120h-54v780h54v-780zM217 -120h-54v328h-5c-92 0 -147 68 -147 226s55 226 147 226h59v-780z" />
    <glyph glyph-name="periodcentered" unicode="&#xb7;" horiz-adv-x="204" 
d="M138 236h-72v88h72v-88z" />
    <glyph glyph-name="cedilla" unicode="&#xb8;" 
d="M301 -110c0 -63 -28 -86 -79 -86c-5 0 -15 1 -24 3l5 29c6 -3 15 -5 19 -5c34 0 43 13 43 59c0 33 -5 59 -36 59h-6l9 51h27l-5 -30c31 -5 47 -35 47 -80z" />
    <glyph glyph-name="onesuperior" unicode="&#xb9;" horiz-adv-x="169" 
d="M103 297h-40v320l-48 -38l-4 34l59 47h33v-363z" />
    <glyph glyph-name="ordmasculine" unicode="&#xba;" horiz-adv-x="350" 
d="M317 438c0 -170 -31 -237 -142 -237s-142 67 -142 237s31 237 142 237s142 -67 142 -237zM305 0h-260v49h260v-49zM252 438c0 149 -14 188 -77 188s-77 -39 -77 -188s14 -188 77 -188s77 39 77 188z" />
    <glyph glyph-name="guillemotright" unicode="&#xbb;" horiz-adv-x="257" 
d="M246 250l-114 -176l-42 9l86 197l-86 197l42 9l114 -176v-60zM118 274l-72 -164l-35 7l49 163l-49 163l35 7l72 -164v-12z" />
    <glyph glyph-name="onequarter" unicode="&#xbc;" horiz-adv-x="420" 
d="M103 297h-40v320l-48 -38l-4 34l59 47h33v-363zM328 662l-270 -670l-29 6l270 670zM376 101h-36v-101h-39v101h-110v40l88 222h61v-231h36v-31zM301 132v211h-5c-11 -38 -36 -107 -48 -137l-29 -74h82z" />
    <glyph glyph-name="onehalf" unicode="&#xbd;" horiz-adv-x="439" 
d="M103 297h-40v320l-48 -38l-4 34l59 47h33v-363zM328 662l-270 -670l-29 6l270 670zM395 0h-155v31l59 102c50 87 55 120 55 149c0 42 -30 58 -62 58c-19 0 -35 -4 -55 -12l-6 37c22 4 44 6 62 6c55 0 102 -30 102 -89c0 -43 -21 -95 -76 -180l-46 -71h122v-31z" />
    <glyph glyph-name="threequarters" unicode="&#xbe;" horiz-adv-x="475" 
d="M186 394c0 -68 -29 -105 -90 -105c-19 0 -52 3 -74 8l5 37c20 -9 48 -14 65 -14c37 0 53 24 53 74c0 47 -17 71 -53 71c-9 0 -17 0 -32 -1v34c15 -1 23 -1 32 -1c36 0 47 28 47 70c0 46 -14 70 -47 70c-18 0 -36 -3 -55 -11l-6 36c30 6 50 6 65 6c60 0 84 -37 84 -101
c0 -36 -10 -68 -44 -80v-5c35 -12 50 -41 50 -88zM383 662l-270 -670l-29 6l270 670zM431 101h-36v-101h-39v101h-110v40l88 222h61v-231h36v-31zM356 132v211h-5c-11 -38 -36 -107 -48 -137l-29 -74h82z" />
    <glyph glyph-name="questiondown" unicode="&#xbf;" horiz-adv-x="403" 
d="M262 612h-72v88h72v-88zM337 -7c-29 -5 -67 -8 -94 -8c-100 0 -177 45 -177 149c0 45 0 77 75 188c55 81 57 106 57 168h57c0 -87 -6 -112 -56 -195c-52 -86 -58 -116 -58 -161c0 -63 43 -92 102 -92c23 0 56 6 84 18z" />
    <glyph glyph-name="Agrave" unicode="&#xc0;" horiz-adv-x="404" 
d="M402 0h-80l-54 263h-135l-51 -263h-80l150 700h100zM255 323l-60 293h-5l-48 -293h113zM252 727h-37l-106 136v7h75z" />
    <glyph glyph-name="Aacute" unicode="&#xc1;" horiz-adv-x="404" 
d="M402 0h-80l-54 263h-135l-51 -263h-80l150 700h100zM255 323l-60 293h-5l-48 -293h113zM295 863l-106 -136h-37l68 143h75v-7z" />
    <glyph glyph-name="Acircumflex" unicode="&#xc2;" horiz-adv-x="404" 
d="M402 0h-80l-54 263h-135l-51 -263h-80l150 700h100zM255 323l-60 293h-5l-48 -293h113zM308 740l-37 -10l-69 75l-69 -75l-37 10l92 117h28z" />
    <glyph glyph-name="Atilde" unicode="&#xc3;" horiz-adv-x="404" 
d="M402 0h-80l-54 263h-135l-51 -263h-80l150 700h100zM255 323l-60 293h-5l-48 -293h113zM314 802c-15 -35 -36 -53 -62 -53c-22 0 -42 8 -57 20c-19 16 -34 24 -46 24c-19 0 -31 -11 -46 -46l-13 39c15 35 36 53 62 53c22 0 42 -8 57 -20c19 -16 34 -24 46 -24
c19 0 31 11 46 46z" />
    <glyph glyph-name="Adieresis" unicode="&#xc4;" horiz-adv-x="404" 
d="M402 0h-80l-54 263h-135l-51 -263h-80l150 700h100zM255 323l-60 293h-5l-48 -293h113zM304 734h-68v120h68v-120zM168 734h-68v120h68v-120z" />
    <glyph glyph-name="Aring" unicode="&#xc5;" horiz-adv-x="404" 
d="M402 0h-80l-54 263h-135l-51 -263h-80l150 700h100zM255 323l-60 293h-5l-48 -293h113zM279 798c0 -43 -34 -77 -77 -77s-77 34 -77 77s34 77 77 77s77 -34 77 -77zM248 798c0 25 -21 46 -46 46s-46 -21 -46 -46s21 -46 46 -46s46 21 46 46z" />
    <glyph glyph-name="AE" unicode="&#xc6;" horiz-adv-x="598" 
d="M576 0h-278v299h-158l-58 -299h-80l150 700h417v-60h-195v-254h172v-60h-172v-266h202v-60zM298 359v281h-103l-47 -281h150z" />
    <glyph glyph-name="Ccedilla" unicode="&#xc7;" horiz-adv-x="343" 
d="M308 -110c0 -63 -28 -86 -79 -86c-5 0 -15 1 -24 3l5 29c6 -3 15 -5 19 -5c34 0 43 13 43 59c0 33 -5 59 -36 59h-6l6 36c-107 3 -200 43 -200 365c0 335 101 365 214 365c22 0 54 -2 82 -5l-9 -70c-19 10 -50 15 -62 15c-81 0 -146 -3 -146 -305
c0 -297 62 -305 146 -305c20 0 46 3 70 14l-9 -70c-21 -2 -41 -3 -58 -4l-3 -15c31 -5 47 -35 47 -80z" />
    <glyph glyph-name="Egrave" unicode="&#xc8;" horiz-adv-x="355" 
d="M333 0h-278v700h271v-60h-195v-254h172v-60h-172v-266h202v-60zM248 727h-37l-106 136v7h75z" />
    <glyph glyph-name="Eacute" unicode="&#xc9;" horiz-adv-x="355" 
d="M333 0h-278v700h271v-60h-195v-254h172v-60h-172v-266h202v-60zM284 863l-106 -136h-37l68 143h75v-7z" />
    <glyph glyph-name="Ecircumflex" unicode="&#xca;" horiz-adv-x="355" 
d="M333 0h-278v700h271v-60h-195v-254h172v-60h-172v-266h202v-60zM295 740l-37 -10l-69 75l-69 -75l-37 10l92 117h28z" />
    <glyph glyph-name="Edieresis" unicode="&#xcb;" horiz-adv-x="355" 
d="M333 0h-278v700h271v-60h-195v-254h172v-60h-172v-266h202v-60zM293 734h-68v120h68v-120zM157 734h-68v120h68v-120z" />
    <glyph glyph-name="Igrave" unicode="&#xcc;" horiz-adv-x="186" 
d="M131 0h-76v700h76v-700zM131 727h-37l-106 136v7h75z" />
    <glyph glyph-name="Iacute" unicode="&#xcd;" horiz-adv-x="186" 
d="M131 0h-76v700h76v-700zM198 863l-106 -136h-37l68 143h75v-7z" />
    <glyph glyph-name="Icircumflex" unicode="&#xce;" horiz-adv-x="186" 
d="M131 0h-76v700h76v-700zM199 740l-37 -10l-69 75l-69 -75l-37 10l92 117h28z" />
    <glyph glyph-name="Idieresis" unicode="&#xcf;" horiz-adv-x="186" 
d="M156 734h-47v120h47v-120zM77 734h-47v120h47v-120zM131 0h-76v700h76v-700z" />
    <glyph glyph-name="Eth" unicode="&#xd0;" horiz-adv-x="458" 
d="M422 350c0 -271 -53 -350 -227 -350h-140v330h-43v48h43v322h140c174 0 227 -79 227 -350zM343 350c0 224 -29 290 -150 290h-62v-262h66v-48h-66v-270h62c121 0 150 66 150 290z" />
    <glyph glyph-name="Ntilde" unicode="&#xd1;" horiz-adv-x="463" 
d="M408 700l-3 -700h-111l-172 595h-9l8 -163c9 -190 10 -273 10 -316v-116h-76l3 700h111l172 -595h9l-8 163c-9 190 -10 273 -10 316v116h76zM343 802c-15 -35 -36 -53 -62 -53c-22 0 -42 8 -57 20c-19 16 -34 24 -46 24c-19 0 -31 -11 -46 -46l-13 39c15 35 36 53 62 53
c22 0 42 -8 57 -20c19 -16 34 -24 46 -24c19 0 31 11 46 46z" />
    <glyph glyph-name="Ograve" unicode="&#xd2;" horiz-adv-x="476" 
d="M440 350c0 -308 -85 -365 -202 -365s-202 57 -202 365s85 365 202 365s202 -57 202 -365zM361 350c0 263 -50 305 -123 305s-123 -42 -123 -305s50 -305 123 -305s123 42 123 305zM289 727h-37l-106 136v7h75z" />
    <glyph glyph-name="Oacute" unicode="&#xd3;" horiz-adv-x="476" 
d="M440 350c0 -308 -85 -365 -202 -365s-202 57 -202 365s85 365 202 365s202 -57 202 -365zM361 350c0 263 -50 305 -123 305s-123 -42 -123 -305s50 -305 123 -305s123 42 123 305zM330 863l-106 -136h-37l68 143h75v-7z" />
    <glyph glyph-name="Ocircumflex" unicode="&#xd4;" horiz-adv-x="476" 
d="M440 350c0 -308 -85 -365 -202 -365s-202 57 -202 365s85 365 202 365s202 -57 202 -365zM361 350c0 263 -50 305 -123 305s-123 -42 -123 -305s50 -305 123 -305s123 42 123 305zM344 740l-37 -10l-69 75l-69 -75l-37 10l92 117h28z" />
    <glyph glyph-name="Otilde" unicode="&#xd5;" horiz-adv-x="476" 
d="M440 350c0 -308 -85 -365 -202 -365s-202 57 -202 365s85 365 202 365s202 -57 202 -365zM361 350c0 263 -50 305 -123 305s-123 -42 -123 -305s50 -305 123 -305s123 42 123 305zM350 802c-15 -35 -36 -53 -62 -53c-22 0 -42 8 -57 20c-19 16 -34 24 -46 24
c-19 0 -31 -11 -46 -46l-13 39c15 35 36 53 62 53c22 0 42 -8 57 -20c19 -16 34 -24 46 -24c19 0 31 11 46 46z" />
    <glyph glyph-name="Odieresis" unicode="&#xd6;" horiz-adv-x="476" 
d="M440 350c0 -308 -85 -365 -202 -365s-202 57 -202 365s85 365 202 365s202 -57 202 -365zM361 350c0 263 -50 305 -123 305s-123 -42 -123 -305s50 -305 123 -305s123 42 123 305zM340 734h-68v120h68v-120zM204 734h-68v120h68v-120z" />
    <glyph glyph-name="multiply" unicode="&#xd7;" horiz-adv-x="430" 
d="M369 215l-35 -34l-119 119l-119 -119l-35 34l119 119l-119 120l35 34l119 -119l119 119l35 -34l-119 -120z" />
    <glyph glyph-name="Oslash" unicode="&#xd8;" horiz-adv-x="476" 
d="M440 350c0 -308 -85 -365 -202 -365c-36 0 -70 5 -98 22l-11 -31l-49 6l21 59c-41 51 -65 143 -65 309c0 308 85 365 202 365c37 0 70 -5 99 -22l11 31l49 -6l-22 -60c40 -51 65 -143 65 -308zM312 624c-20 24 -45 31 -74 31c-73 0 -123 -42 -123 -305
c0 -101 7 -169 20 -215zM361 350c0 99 -7 167 -20 213l-176 -488c20 -23 44 -30 73 -30c73 0 123 42 123 305z" />
    <glyph glyph-name="Ugrave" unicode="&#xd9;" horiz-adv-x="452" 
d="M402 158c0 -128 -71 -173 -176 -173s-176 45 -176 173v542h76v-540c0 -76 21 -115 100 -115s100 39 100 115v540h76v-542zM277 727h-37l-106 136v7h75z" />
    <glyph glyph-name="Uacute" unicode="&#xda;" horiz-adv-x="452" 
d="M402 158c0 -128 -71 -173 -176 -173s-176 45 -176 173v542h76v-540c0 -76 21 -115 100 -115s100 39 100 115v540h76v-542zM318 863l-106 -136h-37l68 143h75v-7z" />
    <glyph glyph-name="Ucircumflex" unicode="&#xdb;" horiz-adv-x="452" 
d="M402 158c0 -128 -71 -173 -176 -173s-176 45 -176 173v542h76v-540c0 -76 21 -115 100 -115s100 39 100 115v540h76v-542zM332 740l-37 -10l-69 75l-69 -75l-37 10l92 117h28z" />
    <glyph glyph-name="Udieresis" unicode="&#xdc;" horiz-adv-x="452" 
d="M402 158c0 -128 -71 -173 -176 -173s-176 45 -176 173v542h76v-540c0 -76 21 -115 100 -115s100 39 100 115v540h76v-542zM328 734h-68v120h68v-120zM192 734h-68v120h68v-120z" />
    <glyph glyph-name="Yacute" unicode="&#xdd;" horiz-adv-x="394" 
d="M392 700l-157 -424v-276h-76v276l-157 424h85l118 -337h4l18 68c17 64 47 169 59 205l21 64h85zM299 863l-106 -136h-37l68 143h75v-7z" />
    <glyph glyph-name="Thorn" unicode="&#xde;" horiz-adv-x="397" 
d="M375 356c0 -159 -39 -215 -193 -215h-51v-141h-76v700h76v-129h51c154 0 193 -56 193 -215zM296 356c0 118 -13 155 -117 155h-48v-310h48c104 0 117 36 117 155z" />
    <glyph glyph-name="germandbls" unicode="&#xdf;" horiz-adv-x="407" 
d="M377 196c0 -162 -39 -210 -163 -210c-10 0 -29 1 -52 2v56c16 -2 39 -4 51 -4c61 0 93 32 93 157c0 117 -28 157 -93 157h-51v54h42c62 0 83 26 83 151c0 123 -18 151 -83 151s-82 -28 -82 -151v-559h-69v354h-48v54h48v151c0 121 19 205 151 205c114 0 154 -56 154 -198
c0 -74 -11 -152 -83 -171v-8c71 -12 102 -66 102 -191z" />
    <glyph glyph-name="agrave" unicode="&#xe0;" horiz-adv-x="367" 
d="M345 47l-6 -57c-15 -3 -36 -4 -42 -4c-49 0 -53 18 -53 65h-7c-32 -46 -58 -65 -105 -65c-75 0 -110 36 -110 136c0 135 90 168 215 168v64c0 79 -10 104 -88 104c-30 0 -66 -6 -107 -20l-7 60c40 8 90 14 126 14c87 0 145 -25 145 -153v-296c0 -19 2 -21 17 -21
c5 0 13 2 22 5zM237 100v136c-101 0 -143 -36 -143 -114c0 -51 13 -82 58 -82c28 0 57 13 85 60zM203 539h-31l-78 154v7h69z" />
    <glyph glyph-name="aacute" unicode="&#xe1;" horiz-adv-x="367" 
d="M345 47l-6 -57c-15 -3 -36 -4 -42 -4c-49 0 -53 18 -53 65h-7c-32 -46 -58 -65 -105 -65c-75 0 -110 36 -110 136c0 135 90 168 215 168v64c0 79 -10 104 -88 104c-30 0 -66 -6 -107 -20l-7 60c40 8 90 14 126 14c87 0 145 -25 145 -153v-296c0 -19 2 -21 17 -21
c5 0 13 2 22 5zM237 100v136c-101 0 -143 -36 -143 -114c0 -51 13 -82 58 -82c28 0 57 13 85 60zM244 693l-78 -154h-31l40 161h69v-7z" />
    <glyph glyph-name="acircumflex" unicode="&#xe2;" horiz-adv-x="367" 
d="M345 47l-6 -57c-15 -3 -36 -4 -42 -4c-49 0 -53 18 -53 65h-7c-32 -46 -58 -65 -105 -65c-75 0 -110 36 -110 136c0 135 90 168 215 168v64c0 79 -10 104 -88 104c-30 0 -66 -6 -107 -20l-7 60c40 8 90 14 126 14c87 0 145 -25 145 -153v-296c0 -19 2 -21 17 -21
c5 0 13 2 22 5zM237 100v136c-101 0 -143 -36 -143 -114c0 -51 13 -82 58 -82c28 0 57 13 85 60zM254 567l-36 -7l-57 81l-57 -81l-36 7l79 128h28z" />
    <glyph glyph-name="atilde" unicode="&#xe3;" horiz-adv-x="367" 
d="M345 47l-6 -57c-15 -3 -36 -4 -42 -4c-49 0 -53 18 -53 65h-7c-32 -46 -58 -65 -105 -65c-75 0 -110 36 -110 136c0 135 90 168 215 168v64c0 79 -10 104 -88 104c-30 0 -66 -6 -107 -20l-7 60c40 8 90 14 126 14c87 0 145 -25 145 -153v-296c0 -19 2 -21 17 -21
c5 0 13 2 22 5zM237 100v136c-101 0 -143 -36 -143 -114c0 -51 13 -82 58 -82c28 0 57 13 85 60zM280 640c-15 -35 -36 -53 -62 -53c-22 0 -42 8 -57 20c-19 16 -34 24 -46 24c-19 0 -31 -11 -46 -46l-13 39c15 35 36 53 62 53c22 0 42 -8 57 -20c19 -16 34 -24 46 -24
c19 0 31 11 46 46z" />
    <glyph glyph-name="adieresis" unicode="&#xe4;" horiz-adv-x="367" 
d="M345 47l-6 -57c-15 -3 -36 -4 -42 -4c-49 0 -53 18 -53 65h-7c-32 -46 -58 -65 -105 -65c-75 0 -110 36 -110 136c0 135 90 168 215 168v64c0 79 -10 104 -88 104c-30 0 -66 -6 -107 -20l-7 60c40 8 90 14 126 14c87 0 145 -25 145 -153v-296c0 -19 2 -21 17 -21
c5 0 13 2 22 5zM237 100v136c-101 0 -143 -36 -143 -114c0 -51 13 -82 58 -82c28 0 57 13 85 60zM263 580h-68v120h68v-120zM127 580h-68v120h68v-120z" />
    <glyph glyph-name="aring" unicode="&#xe5;" horiz-adv-x="367" 
d="M345 47l-6 -57c-15 -3 -36 -4 -42 -4c-49 0 -53 18 -53 65h-7c-32 -46 -58 -65 -105 -65c-75 0 -110 36 -110 136c0 135 90 168 215 168v64c0 79 -10 104 -88 104c-30 0 -66 -6 -107 -20l-7 60c40 8 90 14 126 14c87 0 145 -25 145 -153v-296c0 -19 2 -21 17 -21
c5 0 13 2 22 5zM237 100v136c-101 0 -143 -36 -143 -114c0 -51 13 -82 58 -82c28 0 57 13 85 60zM238 635c0 -43 -34 -77 -77 -77s-77 34 -77 77s34 77 77 77s77 -34 77 -77zM207 635c0 25 -21 46 -46 46s-46 -21 -46 -46s21 -46 46 -46s46 21 46 46z" />
    <glyph glyph-name="ae" unicode="&#xe6;" horiz-adv-x="583" 
d="M550 236h-244c0 -166 31 -196 114 -196c31 0 74 6 114 22l-6 -60c-44 -12 -91 -16 -122 -16c-79 0 -122 27 -146 79h-7c-32 -46 -63 -79 -121 -79c-75 0 -110 36 -110 136c0 135 90 168 215 168v64c0 79 -10 104 -88 104c-30 0 -66 -6 -107 -20l-7 60c40 8 90 14 126 14
c52 0 94 -9 119 -43c24 29 57 43 112 43c118 0 158 -66 158 -263v-13zM480 290c0 144 -32 168 -88 168c-48 0 -86 -22 -86 -168h174zM237 100v136c-101 0 -143 -36 -143 -114c0 -51 13 -82 58 -82c28 0 57 13 85 60z" />
    <glyph glyph-name="ccedilla" unicode="&#xe7;" horiz-adv-x="302" 
d="M280 51l-7 -61c-16 -2 -40 -4 -59 -4l-3 -16c31 -5 47 -35 47 -80c0 -63 -28 -86 -79 -86c-5 0 -15 1 -24 3l5 29c6 -3 15 -5 19 -5c34 0 43 13 43 59c0 33 -5 59 -36 59h-6l7 37c-100 3 -154 46 -154 263c0 226 59 263 167 263c16 0 54 -2 80 -5l-7 -60
c-19 7 -46 11 -59 11c-78 0 -109 -13 -109 -209s31 -209 109 -209c16 0 46 4 66 11z" />
    <glyph glyph-name="egrave" unicode="&#xe8;" horiz-adv-x="382" 
d="M349 236h-244c0 -166 31 -196 114 -196c31 0 74 6 114 22l-6 -60c-44 -12 -91 -16 -122 -16c-144 0 -172 89 -172 263c0 189 37 263 158 263c118 0 158 -66 158 -263v-13zM279 290c0 144 -32 168 -88 168c-48 0 -86 -22 -86 -168h174zM222 539h-31l-78 154v7h69z" />
    <glyph glyph-name="eacute" unicode="&#xe9;" horiz-adv-x="382" 
d="M349 236h-244c0 -166 31 -196 114 -196c31 0 74 6 114 22l-6 -60c-44 -12 -91 -16 -122 -16c-144 0 -172 89 -172 263c0 189 37 263 158 263c118 0 158 -66 158 -263v-13zM279 290c0 144 -32 168 -88 168c-48 0 -86 -22 -86 -168h174zM269 693l-78 -154h-31l40 161h69v-7
z" />
    <glyph glyph-name="ecircumflex" unicode="&#xea;" horiz-adv-x="382" 
d="M349 236h-244c0 -166 31 -196 114 -196c31 0 74 6 114 22l-6 -60c-44 -12 -91 -16 -122 -16c-144 0 -172 89 -172 263c0 189 37 263 158 263c118 0 158 -66 158 -263v-13zM279 290c0 144 -32 168 -88 168c-48 0 -86 -22 -86 -168h174zM284 567l-36 -7l-57 81l-57 -81
l-36 7l79 128h28z" />
    <glyph glyph-name="edieresis" unicode="&#xeb;" horiz-adv-x="382" 
d="M349 236h-244c0 -166 31 -196 114 -196c31 0 74 6 114 22l-6 -60c-44 -12 -91 -16 -122 -16c-144 0 -172 89 -172 263c0 189 37 263 158 263c118 0 158 -66 158 -263v-13zM279 290c0 144 -32 168 -88 168c-48 0 -86 -22 -86 -168h174zM293 580h-68v120h68v-120zM157 580
h-68v120h68v-120z" />
    <glyph glyph-name="igrave" unicode="&#xec;" horiz-adv-x="157" 
d="M113 0h-69v498h69v-498zM113 539h-31l-78 154v7h69z" />
    <glyph glyph-name="iacute" unicode="&#xed;" horiz-adv-x="157" 
d="M113 0h-69v498h69v-498zM153 693l-78 -154h-31l40 161h69v-7z" />
    <glyph glyph-name="icircumflex" unicode="&#xee;" horiz-adv-x="157" 
d="M113 0h-69v498h69v-498zM171 567l-36 -7l-57 81l-57 -81l-36 7l79 128h28z" />
    <glyph glyph-name="idieresis" unicode="&#xef;" horiz-adv-x="157" 
d="M141 580h-47v120h47v-120zM63 580h-47v120h47v-120zM113 0h-69v498h69v-498z" />
    <glyph glyph-name="eth" unicode="&#xf0;" horiz-adv-x="388" 
d="M355 249c0 -189 -41 -263 -164 -263s-158 74 -158 263c0 243 61 263 128 263c27 0 71 -12 110 -54h9c-5 109 -20 177 -59 216l-48 -96l-42 9l56 112c-25 13 -57 19 -98 22l12 51c45 -3 82 -9 113 -20l11 22l42 -9l-16 -32c91 -58 104 -193 104 -484zM283 249
c0 42 -2 111 -3 156c-30 32 -65 53 -93 53c-63 0 -82 -43 -82 -209s16 -209 86 -209s92 43 92 209z" />
    <glyph glyph-name="ntilde" unicode="&#xf1;" horiz-adv-x="368" 
d="M328 0h-69v380c0 74 -22 78 -57 78c-27 0 -54 -19 -89 -57v-401h-69v498h63l3 -48h7c43 46 71 62 110 62c68 0 101 -33 101 -128v-384zM298 640c-15 -35 -36 -53 -62 -53c-22 0 -42 8 -57 20c-19 16 -34 24 -46 24c-19 0 -31 -11 -46 -46l-13 39c15 35 36 53 62 53
c22 0 42 -8 57 -20c19 -16 34 -24 46 -24c19 0 31 11 46 46z" />
    <glyph glyph-name="ograve" unicode="&#xf2;" horiz-adv-x="382" 
d="M349 249c0 -189 -35 -263 -158 -263s-158 74 -158 263s35 263 158 263s158 -74 158 -263zM277 249c0 166 -16 209 -86 209s-86 -43 -86 -209s16 -209 86 -209s86 43 86 209zM222 539h-31l-78 154v7h69z" />
    <glyph glyph-name="oacute" unicode="&#xf3;" horiz-adv-x="382" 
d="M349 249c0 -189 -35 -263 -158 -263s-158 74 -158 263s35 263 158 263s158 -74 158 -263zM277 249c0 166 -16 209 -86 209s-86 -43 -86 -209s16 -209 86 -209s86 43 86 209zM269 693l-78 -154h-31l40 161h69v-7z" />
    <glyph glyph-name="ocircumflex" unicode="&#xf4;" horiz-adv-x="382" 
d="M349 249c0 -189 -35 -263 -158 -263s-158 74 -158 263s35 263 158 263s158 -74 158 -263zM277 249c0 166 -16 209 -86 209s-86 -43 -86 -209s16 -209 86 -209s86 43 86 209zM284 567l-36 -7l-57 81l-57 -81l-36 7l79 128h28z" />
    <glyph glyph-name="otilde" unicode="&#xf5;" horiz-adv-x="382" 
d="M349 249c0 -189 -35 -263 -158 -263s-158 74 -158 263s35 263 158 263s158 -74 158 -263zM277 249c0 166 -16 209 -86 209s-86 -43 -86 -209s16 -209 86 -209s86 43 86 209zM303 640c-15 -35 -36 -53 -62 -53c-22 0 -42 8 -57 20c-19 16 -34 24 -46 24
c-19 0 -31 -11 -46 -46l-13 39c15 35 36 53 62 53c22 0 42 -8 57 -20c19 -16 34 -24 46 -24c19 0 31 11 46 46z" />
    <glyph glyph-name="odieresis" unicode="&#xf6;" horiz-adv-x="382" 
d="M349 249c0 -189 -35 -263 -158 -263s-158 74 -158 263s35 263 158 263s158 -74 158 -263zM277 249c0 166 -16 209 -86 209s-86 -43 -86 -209s16 -209 86 -209s86 43 86 209zM293 580h-68v120h68v-120zM157 580h-68v120h68v-120z" />
    <glyph glyph-name="divide" unicode="&#xf7;" horiz-adv-x="430" 
d="M251 453h-72v88h72v-88zM408 310h-386v49h386v-49zM251 127h-72v88h72v-88z" />
    <glyph glyph-name="oslash" unicode="&#xf8;" horiz-adv-x="382" 
d="M349 249c0 -189 -35 -263 -158 -263c-37 0 -66 6 -89 21l-19 -41l-44 10l30 65c-27 42 -36 109 -36 208c0 189 35 263 158 263c37 0 66 -6 89 -21l19 41l44 -10l-30 -65c27 -42 36 -109 36 -208zM252 431c-13 19 -33 27 -61 27c-70 0 -86 -43 -86 -209
c0 -51 2 -90 6 -120zM277 249c0 51 -2 90 -6 120l-141 -302c13 -19 33 -27 61 -27c70 0 86 43 86 209z" />
    <glyph glyph-name="ugrave" unicode="&#xf9;" horiz-adv-x="368" 
d="M324 0h-63l-3 48h-7c-43 -46 -71 -62 -110 -62c-68 0 -101 33 -101 128v384h69v-380c0 -74 22 -78 57 -78c27 0 54 19 89 57v401h69v-498zM218 539h-31l-78 154v7h69z" />
    <glyph glyph-name="uacute" unicode="&#xfa;" horiz-adv-x="368" 
d="M324 0h-63l-3 48h-7c-43 -46 -71 -62 -110 -62c-68 0 -101 33 -101 128v384h69v-380c0 -74 22 -78 57 -78c27 0 54 19 89 57v401h69v-498zM255 693l-78 -154h-31l40 161h69v-7z" />
    <glyph glyph-name="ucircumflex" unicode="&#xfb;" horiz-adv-x="368" 
d="M324 0h-63l-3 48h-7c-43 -46 -71 -62 -110 -62c-68 0 -101 33 -101 128v384h69v-380c0 -74 22 -78 57 -78c27 0 54 19 89 57v401h69v-498zM271 567l-36 -7l-57 81l-57 -81l-36 7l79 128h28z" />
    <glyph glyph-name="udieresis" unicode="&#xfc;" horiz-adv-x="368" 
d="M324 0h-63l-3 48h-7c-43 -46 -71 -62 -110 -62c-68 0 -101 33 -101 128v384h69v-380c0 -74 22 -78 57 -78c27 0 54 19 89 57v401h69v-498zM284 580h-68v120h68v-120zM148 580h-68v120h68v-120z" />
    <glyph glyph-name="yacute" unicode="&#xfd;" horiz-adv-x="314" 
d="M312 498l-155 -688h-80l41 173l-116 515h74l86 -410h7l12 79c18 115 36 220 41 246l16 85h74zM224 693l-78 -154h-31l40 161h69v-7z" />
    <glyph glyph-name="thorn" unicode="&#xfe;" horiz-adv-x="371" 
d="M341 249c0 -179 -7 -263 -116 -263c-33 0 -67 16 -108 62h-4v-238h-69v660c0 41 1 98 9 242l2 38h58v-300h4c41 46 75 62 108 62c109 0 116 -84 116 -263zM269 249c0 169 -1 209 -69 209c-27 0 -54 -22 -87 -57v-304c33 -35 60 -57 87 -57c68 0 69 40 69 209z" />
    <glyph glyph-name="ydieresis" unicode="&#xff;" horiz-adv-x="314" 
d="M312 498l-155 -688h-80l41 173l-116 515h74l86 -410h7l12 79c18 115 36 220 41 246l16 85h74zM259 580h-68v120h68v-120zM123 580h-68v120h68v-120z" />
    <glyph glyph-name="dotlessi" unicode="&#x131;" horiz-adv-x="157" 
d="M113 0h-69v498h69v-498z" />
    <glyph glyph-name="Lslash" unicode="&#x141;" horiz-adv-x="334" 
d="M329 0h-263v264l-29 -31l-12 57l41 45v365h76v-304l103 113l43 -23l-146 -161v-265h187v-60z" />
    <glyph glyph-name="lslash" unicode="&#x142;" horiz-adv-x="161" 
d="M156 470l-41 -43v-427h-69v373l-31 -33l-10 52l41 43v35c0 41 1 98 9 242l2 38h58v-261l31 33z" />
    <glyph glyph-name="OE" unicode="&#x152;" horiz-adv-x="657" 
d="M635 0h-274v26c-32 -31 -73 -41 -123 -41c-117 0 -202 57 -202 365s85 365 202 365c52 0 91 -12 123 -40v25h267v-60h-195v-254h172v-60h-172v-266h202v-60zM361 350c0 263 -50 305 -123 305s-123 -42 -123 -305s50 -305 123 -305s123 42 123 305z" />
    <glyph glyph-name="oe" unicode="&#x153;" horiz-adv-x="626" 
d="M593 236h-244c0 -166 31 -196 114 -196c31 0 74 6 114 22l-6 -60c-44 -12 -91 -16 -122 -16c-67 0 -109 20 -135 58c-24 -40 -63 -58 -123 -58c-123 0 -158 74 -158 263s35 263 158 263c59 0 98 -18 122 -56c24 38 62 56 122 56c118 0 158 -66 158 -263v-13zM523 290
c0 144 -32 168 -88 168c-48 0 -86 -22 -86 -168h174zM277 249c0 166 -16 209 -86 209s-86 -43 -86 -209s16 -209 86 -209s86 43 86 209z" />
    <glyph glyph-name="Scaron" unicode="&#x160;" horiz-adv-x="332" 
d="M310 158c0 -133 -82 -173 -182 -173c-30 0 -65 3 -106 9l8 73c30 -17 70 -22 93 -22c62 0 108 26 108 107c0 31 -6 80 -81 167c-106 123 -120 178 -120 230c0 86 34 166 174 166c17 0 61 -3 95 -8l-9 -70c-28 12 -61 18 -80 18c-70 0 -101 -37 -101 -100
c0 -37 12 -88 81 -168c104 -120 120 -183 120 -229zM283 852l-92 -117h-28l-92 117l37 10l69 -75l69 75z" />
    <glyph glyph-name="scaron" unicode="&#x161;" horiz-adv-x="307" 
d="M285 115c0 -96 -72 -129 -155 -129c-27 0 -79 3 -108 8l7 61c31 -11 67 -15 96 -15c56 0 88 27 88 75c0 38 -25 68 -73 105c-88 68 -112 113 -112 165c0 89 64 127 148 127c19 0 58 -2 98 -8l-7 -59c-35 10 -69 13 -86 13c-60 0 -81 -31 -81 -73c0 -28 13 -58 72 -103
c87 -67 113 -111 113 -167zM250 690l-79 -128h-28l-79 128l36 7l57 -81l57 81z" />
    <glyph glyph-name="Ydieresis" unicode="&#x178;" horiz-adv-x="394" 
d="M392 700l-157 -424v-276h-76v276l-157 424h85l118 -337h4l18 68c17 64 47 169 59 205l21 64h85zM299 734h-68v120h68v-120zM163 734h-68v120h68v-120z" />
    <glyph glyph-name="Zcaron" unicode="&#x17d;" horiz-adv-x="394" 
d="M372 0h-350v60l73 180c18 46 56 122 143 279l63 113v8h-266v60h328v-60l-73 -180c-18 -46 -56 -122 -143 -279l-63 -113v-8h288v-60zM305 852l-92 -117h-28l-92 117l37 10l69 -75l69 75z" />
    <glyph glyph-name="zcaron" unicode="&#x17e;" horiz-adv-x="315" 
d="M293 0h-271v54l69 151c28 61 49 98 100 176l37 57v6h-196v54h253v-54l-69 -151c-28 -61 -49 -98 -100 -176l-37 -57v-6h214v-54zM252 690l-79 -128h-28l-79 128l36 7l57 -81l57 81z" />
    <glyph glyph-name="florin" unicode="&#x192;" horiz-adv-x="372" 
d="M367 669l-15 -64c-24 11 -48 13 -61 13c-69 0 -83 -38 -98 -154l-11 -85h126v-57h-134l-37 -271c-10 -71 -21 -140 -42 -242l-8 -38h-61l76 551h-97v57h104l13 88c24 164 66 208 169 208c16 0 49 -2 76 -6z" />
    <glyph glyph-name="circumflex" unicode="&#x2c6;" 
d="M343 567l-36 -7l-57 81l-57 -81l-36 7l79 128h28z" />
    <glyph glyph-name="caron" unicode="&#x2c7;" 
d="M343 690l-79 -128h-28l-79 128l36 7l57 -81l57 81z" />
    <glyph glyph-name="uni02C9" unicode="&#x2c9;" 
d="M356 606h-212v50h212v-50z" />
    <glyph glyph-name="breve" unicode="&#x2d8;" 
d="M330 688c0 -72 -8 -129 -79 -129s-81 57 -81 129h32c0 -57 5 -88 48 -88s48 31 48 88h32z" />
    <glyph glyph-name="dotaccent" unicode="&#x2d9;" 
d="M291 558h-82v88h82v-88z" />
    <glyph glyph-name="ring" unicode="&#x2da;" 
d="M327 635c0 -43 -34 -77 -77 -77s-77 34 -77 77s34 77 77 77s77 -34 77 -77zM296 635c0 25 -21 46 -46 46s-46 -21 -46 -46s21 -46 46 -46s46 21 46 46z" />
    <glyph glyph-name="ogonek" unicode="&#x2db;" 
d="M297 0l-43 -73c-10 -17 -15 -37 -15 -51c0 -30 10 -45 36 -45c6 0 12 0 21 2l-4 -28c-8 -1 -11 -1 -17 -1c-55 0 -72 33 -72 72c0 22 10 48 23 67l39 57h32z" />
    <glyph glyph-name="tilde" unicode="&#x2dc;" 
d="M362 640c-15 -35 -36 -53 -62 -53c-22 0 -42 8 -57 20c-19 16 -34 24 -46 24c-19 0 -31 -11 -46 -46l-13 39c15 35 36 53 62 53c22 0 42 -8 57 -20c19 -16 34 -24 46 -24c19 0 31 11 46 46z" />
    <glyph glyph-name="hungarumlaut" unicode="&#x2dd;" 
d="M354 693l-73 -154h-31l35 161h69v-7zM250 693l-73 -154h-31l35 161h69v-7z" />
    <glyph glyph-name="uni037E" unicode="&#x37e;" horiz-adv-x="204" 
d="M138 410h-72v88h72v-88zM147 80l-73 -238h-38l30 246h81v-8z" />
    <glyph glyph-name="uni0394" unicode="&#x394;" horiz-adv-x="390" 
d="M382 0h-374v60l137 640h100l137 -640v-60zM305 60l-118 548h-5l-28 -172c-12 -73 -31 -186 -44 -251l-25 -125h220z" />
    <glyph glyph-name="uni03A9" unicode="&#x3a9;" horiz-adv-x="468" 
d="M424 430c0 -108 -18 -215 -123 -363v-7h106v-60h-144v70c66 130 82 257 82 360c0 200 -57 225 -111 225s-111 -25 -111 -225c0 -103 16 -230 82 -360v-70h-144v60h106v7c-105 148 -123 255 -123 363c0 260 107 285 190 285s190 -25 190 -285z" />
    <glyph glyph-name="uni03BC" unicode="&#x3bc;" horiz-adv-x="370" 
d="M359 40l-6 -54c-83 0 -95 15 -95 62h-7c-18 -51 -52 -62 -83 -62c-48 0 -67 20 -87 62l-8 -4l12 -42c21 -72 24 -122 24 -156v-36h-69v688h69v-380c0 -72 41 -78 67 -78c27 0 58 16 79 57v401h69v-419c0 -31 5 -37 35 -39z" />
    <glyph glyph-name="pi" unicode="&#x3c0;" horiz-adv-x="362" 
d="M351 444h-29v-444h-69v444h-144v-444h-69v444h-29v54h340v-54z" />
    <glyph glyph-name="afii10023" unicode="&#x401;" horiz-adv-x="355" 
d="M293 734h-68v120h68v-120zM157 734h-68v120h68v-120zM333 0h-278v700h271v-60h-195v-254h172v-60h-172v-266h202v-60z" />
    <glyph glyph-name="afii10051" unicode="&#x402;" horiz-adv-x="482" 
d="M442 139c0 -152 -39 -204 -140 -204l-7 60c52 0 71 40 71 144v153c0 57 -11 77 -66 77c-28 0 -58 -5 -94 -27v-342h-76v640h-125v60h346v-60h-145v-241c36 20 72 30 108 30c104 0 128 -51 128 -135v-155z" />
    <glyph glyph-name="afii10052" unicode="&#x403;" horiz-adv-x="339" 
d="M334 640h-192v-640h-76v700h268v-60zM282 863l-106 -136h-37l68 143h75v-7z" />
    <glyph glyph-name="afii10053" unicode="&#x404;" horiz-adv-x="354" 
d="M332 710l-9 -70c-19 10 -46 15 -62 15c-86 0 -142 -9 -146 -273h174v-60h-174c4 -268 60 -277 146 -277c20 0 46 3 70 14l-9 -70c-27 -3 -53 -4 -72 -4c-127 0 -214 31 -214 365s87 365 214 365c22 0 54 -2 82 -5z" />
    <glyph glyph-name="afii10054" unicode="&#x405;" horiz-adv-x="332" 
d="M310 158c0 -133 -82 -173 -182 -173c-30 0 -65 3 -106 9l8 73c30 -17 70 -22 93 -22c62 0 108 26 108 107c0 31 -6 80 -81 167c-106 123 -120 178 -120 230c0 86 34 166 174 166c17 0 61 -3 95 -8l-9 -70c-28 12 -61 18 -80 18c-70 0 -101 -37 -101 -100
c0 -37 12 -88 81 -168c104 -120 120 -183 120 -229z" />
    <glyph glyph-name="afii10055" unicode="&#x406;" horiz-adv-x="186" 
d="M131 0h-76v700h76v-700z" />
    <glyph glyph-name="afii10056" unicode="&#x407;" horiz-adv-x="186" 
d="M156 734h-47v120h47v-120zM77 734h-47v120h47v-120zM131 0h-76v700h76v-700z" />
    <glyph glyph-name="afii10057" unicode="&#x408;" horiz-adv-x="186" 
d="M131 -11c0 -139 -29 -173 -103 -183l-22 58c41 6 49 23 49 128v708h76v-711z" />
    <glyph glyph-name="afii10058" unicode="&#x409;" horiz-adv-x="611" 
d="M589 215c0 -159 -39 -215 -193 -215h-78l-126 611h-4l-29 -176c-18 -108 -39 -238 -53 -310l-24 -125h-80l150 700h96l58 -270h90c154 0 193 -56 193 -215zM510 215c0 119 -13 155 -117 155h-74l66 -310h8c104 0 117 36 117 155z" />
    <glyph glyph-name="afii10059" unicode="&#x40a;" horiz-adv-x="672" 
d="M650 215c0 -159 -39 -215 -193 -215h-163l-172 595h-9l8 -163c9 -189 10 -273 10 -316v-116h-76l3 700h111l172 -595h9l-8 163c-9 189 -10 273 -10 316v116h76l-1 -270h50c154 0 193 -56 193 -215zM571 215c0 119 -13 155 -117 155h-48v-310h48c104 0 117 36 117 155z
" />
    <glyph glyph-name="afii10060" unicode="&#x40b;" horiz-adv-x="482" 
d="M442 0h-76v292c0 57 -11 77 -66 77c-28 0 -58 -5 -94 -27v-342h-76v640h-125v60h346v-60h-145v-241c36 20 72 30 108 30c104 0 128 -51 128 -135v-294z" />
    <glyph glyph-name="afii10061" unicode="&#x40c;" horiz-adv-x="421" 
d="M420 3l-84 -7l-136 310l-69 -118v-188h-76v700h76v-393h4l192 395l82 -4l-51 -103c-23 -47 -63 -127 -89 -171l-23 -39zM322 863l-106 -136h-37l68 143h75v-7z" />
    <glyph glyph-name="afii10062" unicode="&#x40e;" horiz-adv-x="394" 
d="M300 861c0 -89 -13 -142 -103 -142s-103 53 -103 142h57c0 -76 9 -97 46 -97s46 21 46 97h57zM392 700l-157 -424v-276h-76v276l-157 424h85l118 -337h4l18 68c17 64 47 169 59 205l21 64h85z" />
    <glyph glyph-name="afii10145" unicode="&#x40f;" horiz-adv-x="452" 
d="M402 158c0 -114 -56 -162 -142 -171v-157h-68v157c-86 9 -142 57 -142 171v542h76v-540c0 -76 21 -115 100 -115s100 39 100 115v540h76v-542z" />
    <glyph glyph-name="afii10017" unicode="&#x410;" horiz-adv-x="404" 
d="M402 0h-80l-54 263h-135l-51 -263h-80l150 700h100zM255 323l-60 293h-5l-48 -293h113z" />
    <glyph glyph-name="afii10018" unicode="&#x411;" horiz-adv-x="410" 
d="M385 215c0 -159 -39 -215 -193 -215h-137v700h274v-60h-198v-210h61c154 0 193 -56 193 -215zM306 215c0 119 -13 155 -117 155h-58v-310h58c104 0 117 36 117 155z" />
    <glyph glyph-name="afii10019" unicode="&#x412;" horiz-adv-x="410" 
d="M385 188c0 -121 -32 -188 -194 -188h-136v700h133c131 0 187 -47 187 -181c0 -78 -31 -128 -84 -146v-8c68 -20 94 -66 94 -177zM296 513c0 92 -24 127 -111 127h-54v-254h54c87 0 111 35 111 127zM306 193c0 105 -34 133 -118 133h-57v-266h57c84 0 118 28 118 133z" />
    <glyph glyph-name="afii10020" unicode="&#x413;" horiz-adv-x="339" 
d="M334 640h-192v-640h-76v700h268v-60z" />
    <glyph glyph-name="afii10021" unicode="&#x414;" horiz-adv-x="458" 
d="M422 350c0 -271 -53 -350 -227 -350h-140v700h140c174 0 227 -79 227 -350zM343 350c0 224 -29 290 -150 290h-62v-580h62c121 0 150 66 150 290z" />
    <glyph glyph-name="afii10022" unicode="&#x415;" horiz-adv-x="355" 
d="M333 0h-278v700h271v-60h-195v-254h172v-60h-172v-266h202v-60z" />
    <glyph glyph-name="afii10024" unicode="&#x416;" horiz-adv-x="640" 
d="M639 3l-84 -7l-136 310l-61 -104v-202h-76v202l-61 104l-136 -310l-84 7l174 382l-23 39c-26 44 -66 124 -89 171l-51 103l82 4l184 -378h4v376h76v-376h4l184 378l82 -4l-51 -103c-23 -47 -63 -127 -89 -171l-23 -39z" />
    <glyph glyph-name="afii10025" unicode="&#x417;" horiz-adv-x="336" 
d="M311 182c0 -167 -87 -197 -190 -197c-35 0 -74 3 -110 9l8 73c32 -16 66 -22 97 -22c85 0 116 31 116 139c0 118 -44 139 -120 139c-15 0 -43 0 -61 -2v64c20 -2 45 -2 61 -2c81 0 110 42 110 136s-25 136 -106 136c-24 0 -56 -5 -87 -19l-9 70c28 5 72 9 101 9
c129 0 180 -64 180 -194c0 -81 -28 -132 -89 -149v-8c72 -19 99 -73 99 -182z" />
    <glyph glyph-name="afii10026" unicode="&#x418;" horiz-adv-x="456" 
d="M401 0h-76v581h-4l-22 -93c-48 -199 -54 -218 -114 -368l-48 -120h-82v700h76v-581h4l22 93c48 199 54 218 114 368l48 120h82v-700z" />
    <glyph glyph-name="afii10027" unicode="&#x419;" horiz-adv-x="456" 
d="M331 861c0 -89 -13 -142 -103 -142s-103 53 -103 142h57c0 -76 9 -97 46 -97s46 21 46 97h57zM401 0h-76v581h-4l-22 -93c-48 -199 -54 -218 -114 -368l-48 -120h-82v700h76v-581h4l22 93c48 199 54 218 114 368l48 120h82v-700z" />
    <glyph glyph-name="afii10028" unicode="&#x41a;" horiz-adv-x="421" 
d="M420 3l-84 -7l-136 310l-69 -118v-188h-76v700h76v-393h4l192 395l82 -4l-51 -103c-23 -47 -63 -127 -89 -171l-23 -39z" />
    <glyph glyph-name="afii10029" unicode="&#x41b;" horiz-adv-x="400" 
d="M398 0h-80l-126 611h-4l-29 -176c-18 -108 -39 -238 -53 -310l-24 -125h-80l150 700h96z" />
    <glyph glyph-name="afii10030" unicode="&#x41c;" horiz-adv-x="556" 
d="M501 0h-78v140c0 94 1 236 3 301l6 211h-8l-109 -652h-74l-109 652h-8l6 -211c2 -65 3 -207 3 -301v-140h-78l14 700h124l92 -552h5l13 126c9 91 24 207 45 336l15 90h124z" />
    <glyph glyph-name="afii10031" unicode="&#x41d;" horiz-adv-x="463" 
d="M408 700l-3 -700h-111l-172 595h-9l8 -163c9 -190 10 -273 10 -316v-116h-76l3 700h111l172 -595h9l-8 163c-9 190 -10 273 -10 316v116h76z" />
    <glyph glyph-name="afii10032" unicode="&#x41e;" horiz-adv-x="476" 
d="M440 350c0 -308 -85 -365 -202 -365s-202 57 -202 365s85 365 202 365s202 -57 202 -365zM361 350c0 263 -50 305 -123 305s-123 -42 -123 -305s50 -305 123 -305s123 42 123 305z" />
    <glyph glyph-name="afii10033" unicode="&#x41f;" horiz-adv-x="456" 
d="M401 0h-76v640h-194v-640h-76v700h346v-700z" />
    <glyph glyph-name="afii10034" unicode="&#x420;" horiz-adv-x="397" 
d="M375 485c0 -159 -39 -215 -193 -215h-51v-270h-76v700h127c154 0 193 -56 193 -215zM296 485c0 119 -13 155 -117 155h-48v-310h48c104 0 117 36 117 155z" />
    <glyph glyph-name="afii10035" unicode="&#x421;" horiz-adv-x="343" 
d="M332 710l-9 -70c-19 10 -50 15 -62 15c-81 0 -146 -3 -146 -305c0 -297 62 -305 146 -305c20 0 46 3 70 14l-9 -70c-27 -3 -53 -4 -72 -4c-113 0 -214 30 -214 365s101 365 214 365c22 0 54 -2 82 -5z" />
    <glyph glyph-name="afii10036" unicode="&#x422;" horiz-adv-x="356" 
d="M351 640h-135v-640h-76v640h-135v60h346v-60z" />
    <glyph glyph-name="afii10037" unicode="&#x423;" horiz-adv-x="394" 
d="M392 700l-157 -424v-276h-76v276l-157 424h85l118 -337h4l18 68c17 64 47 169 59 205l21 64h85z" />
    <glyph glyph-name="afii10038" unicode="&#x424;" horiz-adv-x="530" 
d="M494 350c0 -270 -65 -325 -191 -325v-85h-76v85c-126 0 -191 55 -191 325s65 325 191 325v85h76v-85c126 0 191 -55 191 -325zM415 350c0 234 -34 265 -112 265v-530c78 0 112 31 112 265zM227 85v530c-78 0 -112 -31 -112 -265s34 -265 112 -265z" />
    <glyph glyph-name="afii10039" unicode="&#x425;" horiz-adv-x="405" 
d="M400 4l-82 -7l-123 290h-5l-23 -72c-22 -67 -51 -145 -58 -163l-22 -55l-82 7l155 352l-149 340l82 7l119 -279h5l23 72c22 67 43 134 50 152l22 55l82 -7l-149 -339z" />
    <glyph glyph-name="afii10040" unicode="&#x426;" horiz-adv-x="452" 
d="M470 -115l-78 -29l-114 133c-16 -3 -34 -4 -52 -4c-105 0 -176 45 -176 173v542h76v-540c0 -76 21 -115 100 -115s100 39 100 115v540h76v-542c0 -76 -25 -124 -68 -149v-2l42 -34c23 -18 60 -54 71 -65z" />
    <glyph glyph-name="afii10041" unicode="&#x427;" horiz-adv-x="366" 
d="M341 430c0 -106 -53 -141 -120 -149v-281h-76v281c-67 8 -120 43 -120 149v270h76v-268c0 -74 22 -93 82 -93s82 19 82 93v268h76v-270z" />
    <glyph glyph-name="afii10042" unicode="&#x428;" horiz-adv-x="618" 
d="M568 223c0 -181 -54 -238 -259 -238s-259 57 -259 238v477h76v-475c0 -127 21 -172 145 -179v654h76v-654c124 7 145 52 145 179v475h76v-477z" />
    <glyph glyph-name="afii10043" unicode="&#x429;" horiz-adv-x="618" 
d="M612 -115l-78 -29l-117 137c-30 -5 -66 -8 -108 -8c-205 0 -259 57 -259 238v477h76v-475c0 -127 21 -172 145 -179v654h76v-654c124 7 145 52 145 179v475h76v-477c0 -117 -22 -182 -94 -214v-1l44 -35c23 -18 60 -54 71 -65z" />
    <glyph glyph-name="afii10044" unicode="&#x42a;" horiz-adv-x="376" 
d="M346 380c0 -160 -48 -192 -142 -192c-115 0 -139 66 -139 192v266h-60v54h129v-187h4c41 46 72 59 103 59c76 0 105 -47 105 -192zM326 0h-261v54h261v-54zM274 380c0 127 -15 138 -58 138c-27 0 -52 -20 -82 -54v-84c0 -111 12 -138 70 -138c52 0 70 16 70 138z" />
    <glyph glyph-name="afii10045" unicode="&#x42b;" horiz-adv-x="590" 
d="M530 0h-76v700h76v-700zM375 215c0 -159 -39 -215 -193 -215h-127v700h76v-270h51c154 0 193 -56 193 -215zM296 215c0 119 -13 155 -117 155h-48v-310h48c104 0 117 36 117 155z" />
    <glyph glyph-name="afii10046" unicode="&#x42c;" horiz-adv-x="351" 
d="M321 380c0 -160 -48 -192 -142 -192c-115 0 -139 66 -139 192v320h69v-187h4c41 46 72 59 103 59c76 0 105 -47 105 -192zM301 0h-261v54h261v-54zM249 380c0 127 -15 138 -58 138c-27 0 -52 -20 -82 -54v-84c0 -111 12 -138 70 -138c52 0 70 16 70 138z" />
    <glyph glyph-name="afii10047" unicode="&#x42d;" horiz-adv-x="358" 
d="M318 350c0 -334 -87 -365 -214 -365c-22 0 -54 2 -82 5l9 70c19 -10 46 -15 62 -15c86 0 142 9 146 277h-174v60h174c-4 264 -60 273 -146 273c-16 0 -43 -5 -62 -15l-9 70c28 3 60 5 82 5c127 0 214 -31 214 -365z" />
    <glyph glyph-name="afii10048" unicode="&#x42e;" horiz-adv-x="672" 
d="M636 350c0 -305 -71 -365 -202 -365c-127 0 -198 57 -202 337h-101v-322h-76v700h76v-318h101c5 277 75 333 202 333c131 0 202 -60 202 -365zM557 350c0 262 -45 305 -123 305s-123 -43 -123 -305s45 -305 123 -305s123 43 123 305z" />
    <glyph glyph-name="afii10049" unicode="&#x42f;" horiz-adv-x="431" 
d="M376 0h-76v286h-35c-57 0 -75 -13 -103 -86l-79 -204l-81 7l79 197c28 69 49 91 75 105v8c-78 20 -100 92 -100 187c0 159 56 200 193 200h127v-700zM300 346v294h-48c-92 0 -117 -20 -117 -147s29 -147 117 -147h48z" />
    <glyph glyph-name="afii10065" unicode="&#x430;" horiz-adv-x="367" 
d="M345 47l-6 -57c-15 -3 -36 -4 -42 -4c-49 0 -53 18 -53 65h-7c-32 -46 -58 -65 -105 -65c-75 0 -110 36 -110 136c0 135 90 168 215 168v64c0 79 -10 104 -88 104c-30 0 -66 -6 -107 -20l-7 60c40 8 90 14 126 14c87 0 145 -25 145 -153v-296c0 -19 2 -21 17 -21
c5 0 13 2 22 5zM237 100v136c-101 0 -143 -36 -143 -114c0 -51 13 -82 58 -82c28 0 57 13 85 60z" />
    <glyph glyph-name="afii10066" unicode="&#x431;" horiz-adv-x="389" 
d="M356 249c0 -207 -45 -263 -162 -263c-131 0 -161 95 -161 323c0 304 32 396 216 448l88 25l-5 -66l-91 -24c-105 -28 -126 -93 -132 -254h6c26 37 73 74 114 74c88 0 127 -31 127 -263zM284 249c0 166 -10 209 -80 209c-27 0 -60 -29 -96 -77c-2 -37 -3 -74 -3 -132
c0 -178 23 -209 89 -209c72 0 90 43 90 209z" />
    <glyph glyph-name="afii10067" unicode="&#x432;" horiz-adv-x="398" 
d="M368 196c0 -159 -45 -210 -141 -210c-33 0 -69 13 -110 59h-7l-3 -45h-63v559c0 121 19 205 151 205c114 0 154 -56 154 -198c0 -74 -11 -152 -83 -171v-8c71 -12 102 -66 102 -191zM278 559c0 123 -18 151 -83 151s-82 -28 -82 -151v-151h82c62 0 83 26 83 151zM297 197
c0 117 -28 157 -93 157h-91v-260c39 -44 68 -54 91 -54c61 0 93 32 93 157z" />
    <glyph glyph-name="afii10068" unicode="&#x433;" horiz-adv-x="171" 
d="M270 760l-5 -61c-23 8 -51 11 -67 11c-78 0 -85 -47 -85 -169v-371c0 -41 -1 -98 -9 -242l-2 -38h-58v651c0 126 16 223 150 223c13 0 52 -1 76 -4z" />
    <glyph glyph-name="afii10069" unicode="&#x434;" horiz-adv-x="371" 
d="M327 0h-63l-3 48h-7c-41 -46 -75 -62 -108 -62c-109 0 -116 84 -116 263s7 263 116 263c33 0 67 -16 108 -62h4v20c0 41 1 98 9 242l2 38h58v-750zM258 97v304c-33 35 -60 57 -87 57c-68 0 -69 -40 -69 -209s1 -209 69 -209c27 0 54 22 87 57z" />
    <glyph glyph-name="afii10070" unicode="&#x435;" horiz-adv-x="382" 
d="M349 236h-244c0 -166 31 -196 114 -196c31 0 74 6 114 22l-6 -60c-44 -12 -91 -16 -122 -16c-144 0 -172 89 -172 263c0 189 37 263 158 263c118 0 158 -66 158 -263v-13zM279 290c0 144 -32 168 -88 168c-48 0 -86 -22 -86 -168h174z" />
    <glyph glyph-name="afii10072" unicode="&#x436;" horiz-adv-x="535" 
d="M531 4l-76 -9l-99 220l-54 -81v-134h-69v134l-54 81l-99 -220l-76 9l132 277l-13 19c-35 51 -71 109 -86 136l-33 59l74 10l150 -276h5v269h69v-269h5l150 276l74 -10l-33 -59c-15 -27 -51 -85 -86 -136l-13 -19z" />
    <glyph glyph-name="afii10073" unicode="&#x437;" horiz-adv-x="304" 
d="M274 -14c0 -154 -59 -190 -155 -190c-33 0 -76 3 -108 8l7 61c32 -12 70 -15 96 -15c65 0 88 27 88 141c0 125 -30 141 -92 141c-16 0 -34 0 -60 -2v57c28 -2 45 -2 60 -2c59 0 78 28 78 136c0 113 -22 137 -74 137c-23 0 -51 -4 -83 -14l-6 61c31 4 68 7 94 7
c96 0 141 -41 141 -181c0 -96 -25 -144 -78 -159v-8c52 -12 92 -54 92 -178z" />
    <glyph glyph-name="afii10074" unicode="&#x438;" horiz-adv-x="368" 
d="M324 0h-63l-3 48h-7c-43 -46 -71 -62 -110 -62c-68 0 -101 33 -101 128v384h69v-380c0 -74 22 -78 57 -78c27 0 54 19 89 57v401h69v-498z" />
    <glyph glyph-name="afii10075" unicode="&#x439;" horiz-adv-x="368" 
d="M276 688c0 -83 -12 -129 -94 -129s-94 46 -94 129h52c0 -72 4 -88 42 -88s42 16 42 88h52zM324 0h-63l-3 48h-7c-43 -46 -71 -62 -110 -62c-68 0 -101 33 -101 128v384h69v-380c0 -74 22 -78 57 -78c27 0 54 19 89 57v401h69v-498z" />
    <glyph glyph-name="afii10076" unicode="&#x43a;" horiz-adv-x="346" 
d="M342 4l-76 -9l-99 220l-54 -81v-134h-69v470c0 41 1 98 9 242l2 38h58v-522h4l151 277l74 -10l-33 -59c-9 -17 -51 -85 -86 -136l-13 -19z" />
    <glyph glyph-name="afii10077" unicode="&#x43b;" horiz-adv-x="314" 
d="M312 0h-74l-86 410h-7l-12 -79c-18 -115 -36 -220 -41 -246l-16 -85h-74l112 498h86z" />
    <glyph glyph-name="afii10078" unicode="&#x43c;" horiz-adv-x="460" 
d="M416 0h-70v74c0 142 5 216 6 246l4 142h-4l-87 -462h-70l-87 462h-4l4 -142c1 -30 6 -104 6 -246v-74h-70l10 498h104l82 -436h3l5 74c4 53 16 151 25 202l29 160h104z" />
    <glyph glyph-name="afii10079" unicode="&#x43d;" horiz-adv-x="370" 
d="M326 0h-69v226h-144v-226h-69v498h69v-218h144v218h69v-498z" />
    <glyph glyph-name="afii10080" unicode="&#x43e;" horiz-adv-x="382" 
d="M349 249c0 -189 -35 -263 -158 -263s-158 74 -158 263s35 263 158 263s158 -74 158 -263zM277 249c0 166 -16 209 -86 209s-86 -43 -86 -209s16 -209 86 -209s86 43 86 209z" />
    <glyph glyph-name="afii10081" unicode="&#x43f;" horiz-adv-x="368" 
d="M328 0h-69v380c0 74 -22 78 -57 78c-27 0 -54 -19 -89 -57v-401h-69v498h63l3 -48h7c43 46 71 62 110 62c68 0 101 -33 101 -128v-384z" />
    <glyph glyph-name="afii10082" unicode="&#x440;" horiz-adv-x="371" 
d="M341 249c0 -179 -7 -263 -116 -263c-33 0 -67 16 -108 62h-4v-238h-69v688h63l3 -48h7c41 46 75 62 108 62c109 0 116 -84 116 -263zM269 249c0 169 -1 209 -69 209c-27 0 -54 -22 -87 -57v-304c33 -35 60 -57 87 -57c68 0 69 40 69 209z" />
    <glyph glyph-name="afii10083" unicode="&#x441;" horiz-adv-x="302" 
d="M280 51l-7 -61c-20 -2 -50 -4 -73 -4c-108 0 -167 37 -167 263s59 263 167 263c16 0 54 -2 80 -5l-7 -60c-19 7 -46 11 -59 11c-78 0 -109 -13 -109 -209s31 -209 109 -209c16 0 46 4 66 11z" />
    <glyph glyph-name="afii10084" unicode="&#x442;" horiz-adv-x="243" 
d="M238 444h-84v-444h-69v444h-80v54h82l9 182h58v-182h84v-54z" />
    <glyph glyph-name="afii10085" unicode="&#x443;" horiz-adv-x="314" 
d="M312 498l-155 -688h-80l41 173l-116 515h74l86 -410h7l12 79c18 115 36 220 41 246l16 85h74z" />
    <glyph glyph-name="afii10086" unicode="&#x444;" horiz-adv-x="451" 
d="M418 249c0 -189 -35 -263 -158 -263v-176h-69v176c-123 0 -158 74 -158 263c0 194 37 263 158 263c1 40 4 98 9 200l2 38h58v-238c123 0 158 -74 158 -263zM346 249c0 166 -16 209 -86 209v-418c70 0 86 43 86 209zM191 40v418c-70 0 -86 -43 -86 -209s16 -209 86 -209z
" />
    <glyph glyph-name="afii10087" unicode="&#x445;" horiz-adv-x="336" 
d="M332 2l-79 -5l-93 202h-5l-17 -55c-13 -43 -26 -81 -33 -97l-22 -50l-79 5l123 253l-117 241l79 5l87 -189h5l16 55c8 26 21 68 28 84l22 50l79 -5l-117 -241z" />
    <glyph glyph-name="afii10088" unicode="&#x446;" horiz-adv-x="382" 
d="M377 -150h-43l-9 150h-64l-3 48h-7c-43 -46 -71 -62 -110 -62c-68 0 -101 33 -101 128v384h69v-380c0 -74 22 -78 57 -78c27 0 54 19 89 57v401h69v-442h53v-206z" />
    <glyph glyph-name="afii10089" unicode="&#x447;" horiz-adv-x="336" 
d="M292 0h-69v247h-4c-38 -43 -64 -59 -103 -59c-63 0 -94 33 -94 128v182h69v-180c0 -65 12 -76 50 -76c24 0 50 16 82 54v202h69v-498z" />
    <glyph glyph-name="afii10090" unicode="&#x448;" horiz-adv-x="579" 
d="M535 0h-63l-3 48h-7c-36 -41 -68 -62 -109 -62c-55 0 -84 24 -93 67h-5c-42 -49 -75 -67 -113 -67c-68 0 -102 31 -102 128v384h69v-380c0 -67 14 -78 56 -78c29 0 54 21 88 57v401h69v-380c0 -67 14 -78 56 -78c29 0 54 21 88 57v401h69v-498z" />
    <glyph glyph-name="afii10091" unicode="&#x449;" horiz-adv-x="593" 
d="M588 -150h-43l-9 150h-64l-3 48h-7c-36 -41 -68 -62 -109 -62c-55 0 -84 24 -93 67h-5c-42 -49 -75 -67 -113 -67c-68 0 -102 31 -102 128v384h69v-380c0 -67 14 -78 56 -78c29 0 54 21 88 57v401h69v-380c0 -67 14 -78 56 -78c29 0 54 21 88 57v401h69v-442h53v-206z
" />
    <glyph glyph-name="afii10092" unicode="&#x44a;" horiz-adv-x="368" 
d="M346 178c0 -160 -48 -192 -142 -192c-115 0 -139 66 -139 192v266h-60v54h129v-187h4c41 46 72 59 103 59c76 0 105 -47 105 -192zM274 178c0 127 -15 138 -58 138c-27 0 -52 -20 -82 -54v-84c0 -111 12 -138 70 -138c52 0 70 16 70 138z" />
    <glyph glyph-name="afii10093" unicode="&#x44b;" horiz-adv-x="495" 
d="M451 0h-69v498h69v-498zM321 178c0 -160 -48 -192 -142 -192c-115 0 -139 66 -139 192v320h69v-187h4c41 46 72 59 103 59c76 0 105 -47 105 -192zM249 178c0 127 -15 138 -58 138c-27 0 -52 -20 -82 -54v-84c0 -111 12 -138 70 -138c52 0 70 16 70 138z" />
    <glyph glyph-name="afii10094" unicode="&#x44c;" horiz-adv-x="343" 
d="M321 178c0 -160 -48 -192 -142 -192c-115 0 -139 66 -139 192v320h69v-187h4c41 46 72 59 103 59c76 0 105 -47 105 -192zM249 178c0 127 -15 138 -58 138c-27 0 -52 -20 -82 -54v-84c0 -111 12 -138 70 -138c52 0 70 16 70 138z" />
    <glyph glyph-name="afii10095" unicode="&#x44d;" horiz-adv-x="302" 
d="M269 249c0 -226 -59 -263 -167 -263c-16 0 -54 2 -80 5l7 60c19 -7 46 -11 59 -11c75 0 106 12 109 184h-144v54h144c-3 169 -35 180 -109 180c-13 0 -40 -4 -59 -11l-7 60c26 3 64 5 80 5c108 0 167 -37 167 -263z" />
    <glyph glyph-name="afii10096" unicode="&#x44e;" horiz-adv-x="548" 
d="M515 249c0 -189 -35 -263 -158 -263c-118 0 -155 68 -158 238h-86v-224h-69v498h69v-220h86c4 167 41 234 158 234c123 0 158 -74 158 -263zM443 249c0 166 -16 209 -86 209s-86 -43 -86 -209s16 -209 86 -209s86 43 86 209z" />
    <glyph glyph-name="afii10097" unicode="&#x44f;" horiz-adv-x="364" 
d="M320 0h-69v194h-63l-91 -199l-75 9l21 45c15 32 31 64 52 101l28 49c-60 16 -92 54 -92 149c0 104 44 150 147 150h142v-498zM251 248v196h-73c-46 0 -75 -23 -75 -98s29 -98 75 -98h73z" />
    <glyph glyph-name="afii10071" unicode="&#x451;" horiz-adv-x="382" 
d="M293 580h-68v120h68v-120zM157 580h-68v120h68v-120zM349 236h-244c0 -166 31 -196 114 -196c31 0 74 6 114 22l-6 -60c-44 -12 -91 -16 -122 -16c-144 0 -172 89 -172 263c0 189 37 263 158 263c118 0 158 -66 158 -263v-13zM279 290c0 144 -32 168 -88 168
c-48 0 -86 -22 -86 -168h174z" />
    <glyph glyph-name="afii10099" unicode="&#x452;" horiz-adv-x="373" 
d="M333 93c0 -177 -63 -191 -140 -203l-7 53c46 6 78 27 78 152v285c0 74 -22 78 -57 78c-27 0 -54 -19 -89 -57v-401h-69v470c0 28 1 64 4 131h-49v49h51c1 19 2 39 3 62l2 38h58v-100h89v-49h-89v-151h4c43 46 71 62 110 62c68 0 101 -33 101 -128v-291z" />
    <glyph glyph-name="afii10100" unicode="&#x453;" horiz-adv-x="283" 
d="M278 508l-5 -61c-23 8 -56 11 -72 11c-73 0 -88 -42 -88 -169v-119c0 -41 -1 -98 -9 -242l-2 -38h-58v399c0 141 33 223 155 223c13 0 55 -1 79 -4zM244 693l-78 -154h-31l40 161h69v-7z" />
    <glyph glyph-name="afii10101" unicode="&#x454;" horiz-adv-x="302" 
d="M280 51l-7 -61c-20 -2 -50 -4 -73 -4c-108 0 -167 37 -167 263s59 263 167 263c16 0 54 -2 80 -5l-7 -60c-19 7 -46 11 -59 11c-74 0 -106 -11 -109 -180h144v-54h-144c3 -172 34 -184 109 -184c16 0 46 4 66 11z" />
    <glyph glyph-name="afii10102" unicode="&#x455;" horiz-adv-x="307" 
d="M285 115c0 -96 -72 -129 -155 -129c-27 0 -79 3 -108 8l7 61c31 -11 67 -15 96 -15c56 0 88 27 88 75c0 38 -25 68 -73 105c-88 68 -112 113 -112 165c0 89 64 127 148 127c19 0 58 -2 98 -8l-7 -59c-35 10 -69 13 -86 13c-60 0 -81 -31 -81 -73c0 -28 13 -58 72 -103
c87 -67 113 -111 113 -167z" />
    <glyph glyph-name="afii10103" unicode="&#x456;" horiz-adv-x="157" 
d="M116 580h-75v120h75v-120zM113 0h-69v498h69v-498z" />
    <glyph glyph-name="afii10104" unicode="&#x457;" horiz-adv-x="157" 
d="M141 580h-47v120h47v-120zM63 580h-47v120h47v-120zM113 0h-69v498h69v-498z" />
    <glyph glyph-name="afii10105" unicode="&#x458;" horiz-adv-x="158" 
d="M117 580h-75v120h75v-120zM114 -20c0 -115 -15 -172 -108 -184l-19 52c56 6 58 48 58 135v515h69v-518z" />
    <glyph glyph-name="afii10106" unicode="&#x459;" horiz-adv-x="518" 
d="M496 178c0 -160 -48 -192 -142 -192c-82 0 -120 35 -134 102l-68 322h-7l-12 -79c-18 -115 -36 -220 -41 -246l-16 -85h-74l112 498h86l46 -204h4c58 65 86 76 130 76c77 0 116 -31 116 -192zM424 178c0 125 -16 138 -68 138c-27 0 -54 -10 -101 -63l17 -75
c29 -128 35 -138 82 -138c52 0 70 16 70 138z" />
    <glyph glyph-name="afii10107" unicode="&#x45a;" horiz-adv-x="560" 
d="M538 178c0 -160 -48 -192 -142 -192c-115 0 -139 66 -139 192v48h-144v-226h-69v498h69v-218h144v218h69v-187h4c41 46 72 59 103 59c76 0 105 -47 105 -192zM466 178c0 127 -15 138 -58 138c-27 0 -52 -20 -82 -54v-84c0 -111 12 -138 70 -138c52 0 70 16 70 138z" />
    <glyph glyph-name="afii10108" unicode="&#x45b;" horiz-adv-x="373" 
d="M333 0h-69v380c0 74 -22 78 -57 78c-27 0 -54 -19 -89 -57v-401h-69v470c0 28 1 64 4 131h-49v49h51c1 19 2 39 3 62l2 38h58v-100h89v-49h-89v-151h4c43 46 71 62 110 62c68 0 101 -33 101 -128v-384z" />
    <glyph glyph-name="afii10109" unicode="&#x45c;" horiz-adv-x="346" 
d="M342 4l-76 -9l-99 220l-54 -81v-134h-69v470c0 41 1 98 9 242l2 38h58v-522h4l151 277l74 -10l-33 -59c-9 -17 -51 -85 -86 -136l-13 -19zM274 693l-78 -154h-31l40 161h69v-7z" />
    <glyph glyph-name="afii10110" unicode="&#x45e;" horiz-adv-x="314" 
d="M251 688c0 -83 -12 -129 -94 -129s-94 46 -94 129h52c0 -72 4 -88 42 -88s42 16 42 88h52zM312 498l-155 -688h-80l41 173l-116 515h74l86 -410h7l12 79c18 115 36 220 41 246l16 85h74z" />
    <glyph glyph-name="afii10193" unicode="&#x45f;" horiz-adv-x="368" 
d="M324 0h-63l-3 48h-7c-43 -46 -71 -62 -110 -62c-68 0 -101 33 -101 128v384h69v-380c0 -74 22 -78 57 -78c27 0 54 19 89 57v401h69v-498zM213 -170h-62v140h62v-140z" />
    <glyph glyph-name="afii10050" unicode="&#x490;" horiz-adv-x="339" 
d="M334 640h-192v-640h-76v700h219l6 100h43v-160z" />
    <glyph glyph-name="afii10098" unicode="&#x491;" horiz-adv-x="171" 
d="M274 810l-9 -111c-23 8 -51 11 -67 11c-78 0 -85 -47 -85 -169v-371c0 -41 -1 -98 -9 -242l-2 -38h-58v651c0 126 16 223 150 223c6 0 18 0 32 -1l4 47h44z" />
    <glyph glyph-name="endash" unicode="&#x2013;" horiz-adv-x="409" 
d="M387 253h-365v54h365v-54z" />
    <glyph glyph-name="emdash" unicode="&#x2014;" horiz-adv-x="553" 
d="M542 273h-531v54h531v-54z" />
    <glyph glyph-name="quoteleft" unicode="&#x2018;" horiz-adv-x="122" 
d="M111 709l-27 -222h-73v8l66 214h34z" />
    <glyph glyph-name="quoteright" unicode="&#x2019;" horiz-adv-x="122" 
d="M111 692l-66 -214h-34l27 222h73v-8z" />
    <glyph glyph-name="quotesinglbase" unicode="&#x201a;" horiz-adv-x="122" 
d="M111 68l-66 -214h-34l27 222h73v-8z" />
    <glyph glyph-name="quotedblleft" unicode="&#x201c;" horiz-adv-x="225" 
d="M214 709l-27 -222h-73v8l66 214h34zM111 709l-27 -222h-73v8l66 214h34z" />
    <glyph glyph-name="quotedblright" unicode="&#x201d;" horiz-adv-x="225" 
d="M214 692l-66 -214h-34l27 222h73v-8zM111 692l-66 -214h-34l27 222h73v-8z" />
    <glyph glyph-name="quotedblbase" unicode="&#x201e;" horiz-adv-x="225" 
d="M214 68l-66 -214h-34l27 222h73v-8zM111 68l-66 -214h-34l27 222h73v-8z" />
    <glyph glyph-name="dagger" unicode="&#x2020;" horiz-adv-x="365" 
d="M310 392h-93v-574h-69v574h-93v54h93v254h69v-254h93v-54z" />
    <glyph glyph-name="daggerdbl" unicode="&#x2021;" horiz-adv-x="365" 
d="M310 72h-93v-254h-69v254h-93v54h93v266h-93v54h93v254h69v-254h93v-54h-93v-266h93v-54z" />
    <glyph glyph-name="bullet" unicode="&#x2022;" horiz-adv-x="211" 
d="M145 256h-79v88h79v-88z" />
    <glyph glyph-name="ellipsis" unicode="&#x2026;" horiz-adv-x="588" 
d="M522 0h-72v88h72v-88zM330 0h-72v88h72v-88zM138 0h-72v88h72v-88z" />
    <glyph glyph-name="perthousand" unicode="&#x2030;" horiz-adv-x="741" 
d="M697 182c0 -146 -32 -190 -92 -190s-92 44 -92 190s32 190 92 190s92 -44 92 -190zM228 478c0 -146 -32 -190 -92 -190s-92 44 -92 190s32 190 92 190s92 -44 92 -190zM408 662l-270 -670l-29 6l270 670zM473 182c0 -146 -32 -190 -92 -190s-92 44 -92 190s32 190 92 190
s92 -44 92 -190zM652 182c0 136 -20 156 -47 156s-47 -20 -47 -156s20 -156 47 -156s47 20 47 156zM183 478c0 136 -20 156 -47 156s-47 -20 -47 -156s20 -156 47 -156s47 20 47 156zM428 182c0 136 -20 156 -47 156s-47 -20 -47 -156s20 -156 47 -156s47 20 47 156z" />
    <glyph glyph-name="guilsinglleft" unicode="&#x2039;" horiz-adv-x="178" 
d="M167 83l-42 -9l-114 176v60l114 176l42 -9l-86 -197z" />
    <glyph glyph-name="guilsinglright" unicode="&#x203a;" horiz-adv-x="178" 
d="M167 250l-114 -176l-42 9l86 197l-86 197l42 9l114 -176v-60z" />
    <glyph glyph-name="fraction" unicode="&#x2044;" horiz-adv-x="39" 
d="M169 662l-270 -670l-29 6l270 670z" />
    <glyph glyph-name="Euro" unicode="&#x20ac;" horiz-adv-x="355" 
d="M344 670l-9 -66c-18 9 -43 14 -58 14c-71 0 -125 -7 -136 -199h169l-7 -48h-164v-79h153l-6 -48h-145c9 -194 66 -202 136 -202c13 0 31 1 47 5l-9 -60c-18 -1 -36 -2 -49 -2c-108 0 -185 37 -199 259h-56l6 48h47v79h-53l6 48h50c15 228 98 256 199 256
c21 0 52 -2 78 -5z" />
    <glyph glyph-name="uni20B4" unicode="&#x20b4;" horiz-adv-x="407" 
d="M374 246h-195c-30 -49 -33 -81 -33 -103c0 -77 43 -101 102 -101c22 0 60 5 88 21l7 -69c-39 -6 -72 -9 -100 -9c-94 0 -172 38 -172 164c0 25 6 55 29 97h-67v48h97c15 20 33 43 55 69c3 3 5 7 8 10h-160v48h195c27 45 33 78 33 103c0 59 -29 94 -96 94
c-18 0 -49 -6 -75 -17l-9 66c32 5 74 8 90 8c132 0 165 -75 165 -157c0 -28 -5 -56 -28 -97h66v-48h-97c-15 -20 -33 -44 -56 -70l-8 -9h161v-48z" />
    <glyph glyph-name="afii61352" unicode="&#x2116;" horiz-adv-x="763" 
d="M730 465c0 -151 -27 -210 -126 -210s-126 59 -126 210s27 210 126 210s126 -59 126 -210zM718 82h-228v54h228v-54zM408 700l-3 -700h-111l-172 595h-9l8 -163c9 -189 10 -273 10 -316v-116h-76l3 700h111l172 -595h9l-8 163c-9 189 -10 273 -10 316v116h76zM673 465
c0 133 -13 167 -69 167s-69 -34 -69 -167s13 -167 69 -167s69 34 69 167z" />
    <glyph glyph-name="trademark" unicode="&#x2122;" horiz-adv-x="613" 
d="M558 280h-46v84c0 56 0 142 1 181l4 126h-5l-65 -391h-45l-65 391h-5l4 -126c1 -39 2 -125 2 -181v-84h-47l8 420h75l55 -331h3l8 75c6 55 14 125 27 202l9 54h74zM263 664h-81v-384h-46v384h-81v36h208v-36z" />
    <glyph glyph-name="Omega" unicode="&#x2126;" horiz-adv-x="468" 
d="M424 430c0 -108 -18 -215 -123 -363v-7h106v-60h-144v70c66 130 82 257 82 360c0 200 -57 225 -111 225s-111 -25 -111 -225c0 -103 16 -230 82 -360v-70h-144v60h106v7c-105 148 -123 255 -123 363c0 260 107 285 190 285s190 -25 190 -285z" />
    <glyph glyph-name="partialdiff" unicode="&#x2202;" horiz-adv-x="388" 
d="M355 249c0 -189 -41 -263 -164 -263s-158 74 -158 263c0 243 61 263 128 263c27 0 71 -12 110 -54h9c-9 189 -45 254 -191 263l12 51c229 -15 254 -116 254 -523zM283 249c0 42 -2 111 -3 156c-30 32 -65 53 -93 53c-63 0 -82 -43 -82 -209s16 -209 86 -209s92 43 92 209
z" />
    <glyph glyph-name="Delta" unicode="&#x2206;" horiz-adv-x="390" 
d="M382 0h-374v60l137 640h100l137 -640v-60zM305 60l-118 548h-5l-28 -172c-12 -73 -31 -186 -44 -251l-25 -125h220z" />
    <glyph glyph-name="product" unicode="&#x220f;" horiz-adv-x="464" 
d="M453 640h-48v-760h-76v760h-194v-760h-76v760h-48v60h442v-60z" />
    <glyph glyph-name="summation" unicode="&#x2211;" horiz-adv-x="394" 
d="M372 -120h-350v60l108 190c37 65 67 110 106 148l-205 362v60h328v-60h-260v-8l39 -52c33 -44 72 -99 99 -146l60 -105v-54l-73 -129c-38 -68 -50 -87 -93 -144l-43 -58v-8l85 4c38 2 92 4 136 4h63v-64z" />
    <glyph glyph-name="minus" unicode="&#x2212;" horiz-adv-x="430" 
d="M408 310h-386v49h386v-49z" />
    <glyph glyph-name="uni2219" unicode="&#x2219;" horiz-adv-x="204" 
d="M138 236h-72v88h72v-88z" />
    <glyph glyph-name="radical" unicode="&#x221a;" horiz-adv-x="352" 
d="M346 700l-94 -700h-68l-164 362h-14v54h65l147 -332h7l7 90c11 144 16 193 25 260l34 266h55z" />
    <glyph glyph-name="infinity" unicode="&#x221e;" horiz-adv-x="577" 
d="M555 330c0 -155 -63 -200 -137 -200c-51 0 -103 16 -138 125h-3l-15 -33c-30 -66 -64 -92 -113 -92c-61 0 -127 45 -127 200s63 200 137 200c51 0 103 -16 138 -125h3l15 33c30 66 64 92 113 92c61 0 127 -45 127 -200zM483 330c0 118 -27 146 -65 146
c-30 0 -46 -15 -79 -70l-25 -42l20 -63c34 -108 54 -117 84 -117c38 0 65 28 65 146zM263 296l-20 63c-34 108 -54 117 -84 117c-38 0 -65 -28 -65 -146s27 -146 65 -146c30 0 46 15 79 70z" />
    <glyph glyph-name="integral" unicode="&#x222b;" horiz-adv-x="322" 
d="M278 669l-8 -60c-23 8 -44 11 -57 11c-69 0 -81 -55 -81 -98c0 -23 8 -87 23 -139l78 -276c20 -72 29 -120 29 -159c0 -87 -49 -152 -153 -152c-10 0 -40 2 -65 5l8 60c23 -8 44 -11 57 -11c69 0 81 55 81 98c0 23 -8 87 -23 139l-78 276c-20 72 -29 120 -29 159
c0 87 49 152 153 152c10 0 40 -2 65 -5z" />
    <glyph glyph-name="approxequal" unicode="&#x2248;" horiz-adv-x="430" 
d="M397 419c-28 -38 -68 -57 -102 -57c-36 0 -63 10 -95 31c-24 16 -40 26 -68 26c-36 0 -67 -22 -88 -52l-11 44c28 38 68 57 102 57c36 0 63 -10 95 -31c24 -16 40 -26 68 -26c36 0 67 22 88 52zM397 258c-28 -38 -68 -57 -102 -57c-36 0 -63 10 -95 31
c-24 16 -40 26 -68 26c-36 0 -67 -22 -88 -52l-11 44c28 38 68 57 102 57c36 0 63 -10 95 -31c24 -16 40 -26 68 -26c36 0 67 22 88 52z" />
    <glyph glyph-name="notequal" unicode="&#x2260;" horiz-adv-x="430" 
d="M408 229h-201l-53 -203l-38 5l52 198h-146v49h159l29 112h-188v49h201l54 203l38 -5l-53 -198h146v-49h-159l-29 -112h188v-49z" />
    <glyph glyph-name="lessequal" unicode="&#x2264;" horiz-adv-x="386" 
d="M364 310l-10 -52l-332 126v66l332 126l10 -52l-287 -103v-8zM364 135l-10 -48l-332 126v52z" />
    <glyph glyph-name="greaterequal" unicode="&#x2265;" horiz-adv-x="386" 
d="M364 384l-332 -126l-10 52l287 103v8l-287 103l10 52l332 -126v-66zM364 213l-332 -126l-10 48l342 130v-52z" />
    <glyph glyph-name="dotmath" unicode="&#x22c5;" horiz-adv-x="204" 
d="M138 236h-72v88h72v-88z" />
    <glyph glyph-name="lozenge" unicode="&#x25ca;" horiz-adv-x="380" 
d="M336 331l-146 -335l-146 335l146 335zM292 331l-102 234l-102 -234l102 -234z" />
    <glyph glyph-name="Acute" unicode="&#xf6c9;" 
d="M322 863l-106 -136h-37l68 143h75v-7z" />
    <glyph glyph-name="Caron" unicode="&#xf6ca;" 
d="M356 852l-92 -117h-28l-92 117l37 10l69 -75l69 75z" />
    <glyph glyph-name="Grave" unicode="&#xf6ce;" 
d="M322 727h-37l-106 136v7h75z" />
    <glyph glyph-name="afii10068.alt" horiz-adv-x="283" 
d="M278 508l-5 -61c-23 8 -56 11 -72 11c-73 0 -88 -42 -88 -169v-119c0 -41 -1 -98 -9 -242l-2 -38h-58v399c0 141 33 223 155 223c13 0 55 -1 79 -4z" />
    <glyph glyph-name="afii10069.alt" horiz-adv-x="388" 
d="M355 249c0 -189 -41 -263 -164 -263s-158 74 -158 263c0 243 61 263 128 263c27 0 71 -12 110 -54h9c-9 189 -45 254 -191 263l12 51c229 -15 254 -116 254 -523zM283 249c0 42 -2 111 -3 156c-30 32 -65 53 -93 53c-63 0 -82 -43 -82 -209s16 -209 86 -209s92 43 92 209
z" />
    <glyph glyph-name="a.alt" horiz-adv-x="371" 
d="M327 0h-63l-3 48h-7c-41 -46 -75 -62 -108 -62c-109 0 -116 84 -116 263s7 263 116 263c33 0 67 -16 108 -62h7l3 48h63v-498zM258 97v304c-33 35 -60 57 -87 57c-68 0 -69 -40 -69 -209s1 -209 69 -209c27 0 54 22 87 57z" />
    <glyph glyph-name="afii10031.alt" horiz-adv-x="456" 
d="M401 0h-76v326h-194v-326h-76v700h76v-314h194v314h76v-700z" />
    <glyph glyph-name="afii10042.alt" horiz-adv-x="612" 
d="M557 0h-502v700h76v-640h137v640h76v-640h137v640h76v-700z" />
    <glyph glyph-name="Circumflex" 
d="M356 740l-37 -10l-69 75l-69 -75l-37 10l92 117h28z" />
    <glyph glyph-name="Tilde" 
d="M362 802c-15 -35 -36 -53 -62 -53c-22 0 -42 8 -57 20c-19 16 -34 24 -46 24c-19 0 -31 -11 -46 -46l-13 39c15 35 36 53 62 53c22 0 42 -8 57 -20c19 -16 34 -24 46 -24c19 0 31 11 46 46z" />
    <glyph glyph-name="afii10043.alt" horiz-adv-x="624" 
d="M619 -170h-58l-10 170h-496v700h76v-640h137v640h76v-640h137v640h76v-640h62v-230z" />
    <glyph glyph-name="afii10040.alt" horiz-adv-x="468" 
d="M463 -170h-58l-10 170h-340v700h76v-640h194v640h76v-640h62v-230z" />
    <glyph glyph-name="afii10084.alt" horiz-adv-x="311" 
d="M306 444h-116v-444h-69v444h-116v54h301v-54z" />
    <glyph glyph-name="afii10037.alt" horiz-adv-x="372" 
d="M370 700l-206 -700h-85l69 204l-146 496h85l107 -390h4l14 70c13 65 46 219 56 256l17 64h85z" />
    <glyph glyph-name="afii10041.alt" horiz-adv-x="393" 
d="M338 0h-76v311c-36 -20 -72 -30 -108 -30c-104 0 -128 51 -128 135v284h76v-282c0 -57 11 -77 66 -77c28 0 58 5 94 27v332h76v-700z" />
    <glyph glyph-name="afii10065.alt" horiz-adv-x="371" 
d="M327 0h-63l-3 48h-7c-41 -46 -75 -62 -108 -62c-109 0 -116 84 -116 263s7 263 116 263c33 0 67 -16 108 -62h7l3 48h63v-498zM258 97v304c-33 35 -60 57 -87 57c-68 0 -69 -40 -69 -209s1 -209 69 -209c27 0 54 22 87 57z" />
    </font>
</defs>
</svg>
